<svg width="201" height="42" fill="none" xmlns="http://www.w3.org/2000/svg"><path d="M56.532 39.36a2.207 2.207 0 01-2.242-2.165V7.896a2.181 2.181 0 01.645-1.62 2.238 2.238 0 013.846 1.62V20.29h20.047V7.896a2.156 2.156 0 01.647-1.62 2.208 2.208 0 011.597-.625 2.117 2.117 0 011.597.626 2.238 2.238 0 01.606 1.62v29.222a2.248 2.248 0 01-.606 1.596 2.082 2.082 0 01-1.597.646 2.207 2.207 0 01-2.244-2.166v-12.95h-20.04v12.868a2.203 2.203 0 01-.626 1.602 2.163 2.163 0 01-1.63.646z" fill="#ED7064"/><path d="M81.072 39.596a2.456 2.456 0 01-2.29-1.478 2.45 2.45 0 01-.2-1.01v-12.62H59.017v12.62a2.45 2.45 0 01-.697 1.766 2.401 2.401 0 01-1.797.722 2.455 2.455 0 01-2.486-2.413v-29.3a2.4 2.4 0 01.723-1.793 2.457 2.457 0 011.767-.696 2.416 2.416 0 011.784.696 2.441 2.441 0 01.697 1.781v12.145h19.58V7.878a2.4 2.4 0 011.531-2.32 2.46 2.46 0 01.954-.17 2.382 2.382 0 011.772.696 2.479 2.479 0 01.674 1.783v29.228a2.482 2.482 0 01-.668 1.76 2.316 2.316 0 01-1.78.741zM58.539 24.003h20.533v13.105a1.98 1.98 0 001.951 2.004h.047a1.833 1.833 0 001.423-.573c.363-.387.556-.902.54-1.431V7.884a1.985 1.985 0 00-.54-1.451 1.86 1.86 0 00-1.423-.558 1.98 1.98 0 00-1.432.558 1.897 1.897 0 00-.573 1.445v12.635H58.539V7.883a1.897 1.897 0 00-1.998-1.996 1.98 1.98 0 00-1.433.557 1.887 1.887 0 00-.573 1.445v29.224a2.033 2.033 0 002.412 1.966c.39-.074.75-.26 1.035-.534a1.958 1.958 0 00.557-1.432V24.002v.001zM96.018 11.91a2.886 2.886 0 01-2.853-2.298 2.88 2.88 0 011.706-3.24 2.886 2.886 0 013.988 2.935 2.88 2.88 0 01-.831 1.759 2.753 2.753 0 01-2.01.844zm0 27.452a2.14 2.14 0 01-2.204-2.076v-19.33a2.119 2.119 0 01.626-1.596 2.193 2.193 0 013.777 1.596v19.205a2.176 2.176 0 01-.595 1.584 2.113 2.113 0 01-1.604.617z" fill="#ED7064"/><path d="M96.018 39.605a2.371 2.371 0 01-2.275-1.498c-.12-.3-.178-.622-.17-.945V17.954a2.375 2.375 0 01.697-1.77c1.695.12 2.47.12 3.443-.08.683-.139.778 1.155.752 1.85v19.205a2.454 2.454 0 01-.67 1.747 2.381 2.381 0 01-1.777.699zm0-23.613a1.925 1.925 0 00-1.408.538 1.881 1.881 0 00-.557 1.422v19.204a1.891 1.891 0 001.824 1.961h.14a1.869 1.869 0 001.836-1.202c.093-.241.137-.498.129-.756V17.954a1.904 1.904 0 00-.533-1.425c-.379-.37-.949.522-1.477.55l.046-1.088zm0-3.841a3.117 3.117 0 01-3.075-2.488 3.11 3.11 0 011.848-3.496 3.117 3.117 0 013.79 1.137 3.11 3.11 0 01-.383 3.934 2.989 2.989 0 01-2.18.913zm0-5.7a2.638 2.638 0 00-2.613 2.096 2.633 2.633 0 001.557 2.966 2.639 2.639 0 003.649-2.68 2.634 2.634 0 00-.759-1.61 2.493 2.493 0 00-1.834-.77V6.45zM81.073 40.33a3.182 3.182 0 01-3.218-3.147V25.222H59.75v11.894a3.214 3.214 0 01-3.218 3.215 3.219 3.219 0 01-3.218-3.215V7.892a3.213 3.213 0 013.216-3.147 3.218 3.218 0 013.216 3.147v11.42h18.107V7.891a3.137 3.137 0 013.066-3.216h.15a3.114 3.114 0 012.295.92 3.175 3.175 0 01.878 2.296v29.224a3.213 3.213 0 01-.864 2.26 3.048 3.048 0 01-2.304.954zM57.811 23.282h21.994v13.834a1.243 1.243 0 001.212 1.274h.065a1.105 1.105 0 00.887-.338 1.291 1.291 0 00.345-.936V7.892a1.244 1.244 0 00-.335-.947 1.144 1.144 0 00-.897-.33 1.24 1.24 0 00-.922.355 1.206 1.206 0 00-.355.92v13.358H57.81V7.892a1.187 1.187 0 00-.345-.928 1.21 1.21 0 00-.93-.34 1.244 1.244 0 00-.922.354 1.207 1.207 0 00-.35.92v29.22a1.244 1.244 0 001.213 1.276h.064a1.19 1.19 0 00.921-.355 1.24 1.24 0 00.356-.92V23.28l-.007.002z" fill="#ED7064"/><path d="M96.02 40.33a3.111 3.111 0 01-3.17-3.047V17.965c0-1.75 1.363-1.65 3.115-1.653 1.752-.003 3.222-.106 3.225 1.644v19.218a3.132 3.132 0 01-.874 2.237 3.076 3.076 0 01-2.297.92zm0-23.612a1.22 1.22 0 00-.904.332 1.142 1.142 0 00-.33.902v19.204a1.164 1.164 0 001.228 1.233 1.164 1.164 0 00.903-.332 1.222 1.222 0 00.332-.902V17.949a1.188 1.188 0 00-.322-.912 1.154 1.154 0 00-.908-.31v-.009zm0-3.84A3.85 3.85 0 0192.223 9.8a3.842 3.842 0 012.287-4.315 3.85 3.85 0 014.68 1.407 3.842 3.842 0 01-.476 4.86 3.69 3.69 0 01-2.696 1.125zm0-5.7a1.908 1.908 0 00-1.71 2.79 1.906 1.906 0 103.035-2.233 1.775 1.775 0 00-1.326-.558zM84.973 4.189h-7.381v36.876h7.38V4.19z" fill="#ED7064"/><path d="M99.735 15.53h-7.381v25.537h7.381V15.53zM60.72 4.189h-7.38v36.876h7.38V4.19zm45.494 12.831c0-3.353 1.401-6.247 4.203-8.682 2.801-2.436 6.2-3.654 10.196-3.656 4.033 0 7.414 1.237 10.141 3.711 2.727 2.474 4.09 5.559 4.09 9.253 0 3.73-1.382 6.848-4.146 9.355-2.764 2.508-6.219 3.761-10.365 3.76-1.383 0-3.176-.305-5.379-.916v-5.793l2.297.557c.685.115 1.38.166 2.074.153 2.838 0 5.021-.619 6.551-1.856 1.529-1.238 2.297-3.024 2.302-5.36 0-1.964-.747-3.625-2.242-4.982-1.495-1.357-3.325-2.035-5.49-2.033-2.094 0-3.905.668-5.436 2.005-1.53 1.337-2.296 2.986-2.297 4.945v23.706h-6.499V17.019zm43.365 15.748l-3.025-3.75 10.243-7.789c-1.419-1.638-3.138-2.457-5.157-2.458-2.239 0-4.218.858-5.937 2.575-1.719 1.717-2.574 3.676-2.565 5.878 0 2.128.803 3.995 2.409 5.6 1.605 1.605 3.471 2.408 5.598 2.41 2.802 0 5.211-1.363 7.228-4.088l5.27 3.023-1.794 2.632c-.3.41-1.318 1.269-3.054 2.575-1.735 1.306-4.266 1.96-7.591 1.96-4.071 0-7.452-1.335-10.142-4.003-2.691-2.668-4.036-6.037-4.034-10.106 0-4.105 1.354-7.54 4.063-10.305 2.708-2.766 6.135-4.147 10.28-4.143 2.915 0 5.259.606 7.033 1.818 1.773 1.213 2.987 2.22 3.641 3.024.651.803 1.407 2.118 2.269 3.946l-14.735 11.201zm28.069 8.229c-3.024 0-5.508-.948-7.451-2.845-1.943-1.897-2.914-4.409-2.914-7.535V5.727h6.499v7.67h5.157v5.988h-5.157v11.308c0 1.306.411 2.37 1.233 3.19.823.821 1.906 1.232 3.249 1.233h.673v5.878l-1.289.003zm9.523-7.111c1.27.972 2.204 1.457 2.803 1.457.523 0 1.009-.224 1.457-.673a2.157 2.157 0 00.671-1.568c0-.67-.336-1.398-1.009-2.182l-4.651-5.542c-1.381-1.605-2.072-3.322-2.072-5.153 0-2.127.822-3.9 2.465-5.318 1.644-1.42 3.717-2.128 6.219-2.127 1.458 0 2.672.177 3.643.532.971.355 2.073 1.055 3.305 2.1l-3.529 4.48c-1.084-.784-2.019-1.176-2.803-1.177-.522 0-1.007.226-1.455.673-.3.371-.486.876-.557 1.515 0 .524.371 1.215 1.115 2.075l4.446 5.3c1.338 1.683 2.006 3.532 2.005 5.547 0 2.055-.793 3.819-2.38 5.292-1.587 1.474-3.595 2.211-6.024 2.213a12.802 12.802 0 01-3.922-.557c-1.158-.371-2.372-1.025-3.64-1.96l3.913-4.927zM40.25 22.349c2.049 0 3.71-2.43 3.71-5.429 0-2.998-1.661-5.428-3.71-5.428-2.05 0-3.71 2.43-3.71 5.428 0 2.998 1.66 5.429 3.71 5.429zm-36.538.031c2.049 0 3.71-2.431 3.71-5.43 0-2.997-1.66-5.427-3.71-5.427-2.049 0-3.71 2.43-3.71 5.428 0 2.998 1.661 5.428 3.71 5.428zm25.575-6.752c2.95 0 5.34-3.498 5.34-7.814S32.237 0 29.287 0c-2.95 0-5.341 3.498-5.341 7.814s2.391 7.814 5.34 7.814zm-14.751 0c2.95 0 5.34-3.498 5.34-7.814S17.486 0 14.536 0c-2.95 0-5.341 3.498-5.341 7.814s2.391 7.814 5.34 7.814zM39.217 30.58c-.05 4.178-2.934 7.66-6.959 9.842-1.579.856-3.173 1.114-4.93.58-1.758-.533-3.494-1.392-5.41-1.392-3.075 0-5.808 2.072-8.906 1.345-4.925-1.157-8.453-6.223-8.453-10.377 0-7.146 7.745-12.938 17.3-12.938 9.198 0 17.41 5.954 17.358 12.886v.054z" fill="#ED7064"/><path d="M16.96 33.813a.545.545 0 01-.557-.534v-7.202a.54.54 0 01.16-.399.558.558 0 01.777-.012.543.543 0 01.167.41v3.046h4.935v-3.045a.527.527 0 01.34-.515.54.54 0 01.21-.037.518.518 0 01.543.552v7.184a.557.557 0 01-.15.393.513.513 0 01-.385.159.543.543 0 01-.558-.53v-3.186h-4.927v3.164a.545.545 0 01-.338.514.535.535 0 01-.216.038z" fill="#fff"/><path d="M23 33.87a.603.603 0 01-.612-.594v-3.12H17.57v3.102a.601.601 0 01-.372.57.587.587 0 01-.24.042.603.603 0 01-.611-.594v-7.202a.585.585 0 01.178-.442.61.61 0 011.044.44v2.986h4.812v-2.986a.595.595 0 01.614-.611.583.583 0 01.434.171.608.608 0 01.166.439v7.184a.605.605 0 01-.36.57.568.568 0 01-.236.045zm-5.539-3.834h5.048v3.222a.487.487 0 00.481.493H23a.45.45 0 00.35-.139.483.483 0 00.132-.35v-7.188a.482.482 0 00-.132-.357.462.462 0 00-.35-.139.485.485 0 00-.46.302.46.46 0 00-.03.192v3.106h-5.056v-3.106a.465.465 0 00-.447-.49h-.05a.491.491 0 00-.353.14.47.47 0 00-.14.355v7.184a.5.5 0 00.85.352.487.487 0 00.139-.352v-3.225h.008zm9.207-2.972a.71.71 0 11.493-.208.679.679 0 01-.493.208zm0 6.748a.528.528 0 01-.542-.51v-4.754c0-.146.177.482.279.378a.53.53 0 01.752 0c.112.107.055-.532.049-.378v4.721a.538.538 0 01-.146.39.523.523 0 01-.392.154z" fill="#fff"/><path d="M26.668 33.872a.597.597 0 01-.43-.165.558.558 0 01-.172-.418v-4.526a.557.557 0 01.171-.418.619.619 0 01.848-.02.558.558 0 01.184.437v4.526a.557.557 0 01-.366.545.597.597 0 01-.235.04zm0-5.695a.472.472 0 00-.452.285.447.447 0 00-.033.187v4.634a.46.46 0 00.449.474h.033a.47.47 0 00.45-.295.458.458 0 00.031-.183v-4.63a.45.45 0 00-.292-.444.468.468 0 00-.189-.028h.003zm0-1.055a.766.766 0 11.535-.224.729.729 0 01-.535.224zm0-1.4a.647.647 0 10.45.189.616.616 0 00-.45-.19zM23 34.05a.784.784 0 01-.792-.772v-2.941h-4.457v2.924a.789.789 0 01-.79.824.791.791 0 01-.792-.824v-7.186a.79.79 0 011.582 0v2.808h4.45v-2.808a.772.772 0 01.754-.79h.036a.766.766 0 01.565.226.78.78 0 01.216.564v7.185a.787.787 0 01-.212.557.747.747 0 01-.56.234zm-5.715-4.191h5.408v3.4a.306.306 0 00.298.314H23a.278.278 0 00.219-.082.321.321 0 00.083-.231v-7.185a.3.3 0 00-.082-.232.28.28 0 00-.22-.08.3.3 0 00-.314.314v3.283H17.28v-3.285a.29.29 0 00-.19-.295.294.294 0 00-.124-.017.303.303 0 00-.226.087.299.299 0 00-.086.227v7.184a.306.306 0 00.298.313h.015a.3.3 0 00.314-.313V29.86h.005z" fill="#fff"/><path d="M26.668 34.05a.745.745 0 01-.78-.696v-4.449a.78.78 0 011.559 0v4.417a.694.694 0 01-.215.517.775.775 0 01-.564.212zm0-5.121a.319.319 0 00-.222.07.226.226 0 00-.082.194v4.115a.24.24 0 00.084.193.374.374 0 00.44 0 .244.244 0 00.082-.194v-4.115a.235.235 0 00-.08-.195.306.306 0 00-.222-.067v-.001zm0-1.628a.945.945 0 01-.375-1.815.946.946 0 011.308.96.944.944 0 01-.574.781.897.897 0 01-.359.068v.006zm0-1.401a.469.469 0 10-.014.937.469.469 0 00.014-.937zm-2.715-.734h-1.815v9.066h1.815v-9.066z" fill="#fff"/><path d="M27.58 28.175h-1.814v6.057h1.815v-6.057zm-9.59-3.009h-1.814v9.066h1.815v-9.066z" fill="#fff"/></svg>