<svg width="138" height="46" viewBox="0 0 138 46" fill="none" xmlns="http://www.w3.org/2000/svg">
<path d="M126.655 0.0001495H10.9648C10.5431 0.0001495 10.1265 0.0001495 9.70591 0.00244949C9.35384 0.00474948 9.00457 0.011431 8.64912 0.0170544C7.87691 0.0261415 7.10652 0.0940769 6.34464 0.22027C5.58383 0.349211 4.84686 0.592301 4.15864 0.941318C3.47126 1.29329 2.84319 1.75064 2.2972 2.29677C1.74834 2.84137 1.29083 3.47086 0.942249 4.16102C0.592708 4.84981 0.350335 5.58791 0.223502 6.34983C0.0954623 7.11079 0.0265631 7.88052 0.0174224 8.65212C0.00675048 9.00471 0.00562348 9.35847 0 9.71111V36.2924C0.00562348 36.6495 0.00675048 36.9954 0.0174224 37.3526C0.0265659 38.1242 0.0954651 38.8939 0.223502 39.6548C0.349985 40.4171 0.592372 41.1557 0.942249 41.8447C1.29067 42.5326 1.74825 43.1596 2.2972 43.7012C2.84112 44.2497 3.4696 44.7074 4.15864 45.0567C4.84685 45.4066 5.58375 45.6511 6.34464 45.7821C7.10665 45.9073 7.87697 45.9752 8.64912 45.9854C9.00457 45.9932 9.35384 45.9977 9.70591 45.9977C10.1265 46 10.5432 46 10.9648 46H126.655C127.068 46 127.488 46 127.901 45.9977C128.252 45.9977 128.611 45.9932 128.961 45.9854C129.732 45.9758 130.501 45.9078 131.261 45.7821C132.025 45.6502 132.764 45.4058 133.456 45.0567C134.144 44.7072 134.772 44.2495 135.316 43.7012C135.863 43.1575 136.322 42.531 136.674 41.8447C137.022 41.1552 137.262 40.4167 137.386 39.6548C137.515 38.8938 137.586 38.1242 137.6 37.3526C137.604 36.9954 137.604 36.6495 137.604 36.2924C137.613 35.8746 137.613 35.4591 137.613 35.0346V10.9667C137.613 10.5455 137.613 10.1278 137.604 9.71111C137.604 9.35847 137.604 9.00471 137.6 8.65208C137.586 7.88041 137.515 7.11085 137.386 6.34979C137.261 5.58831 137.021 4.85026 136.674 4.16097C135.965 2.77762 134.839 1.65157 133.456 0.941214C132.764 0.59305 132.025 0.350025 131.261 0.220167C130.501 0.0934174 129.732 0.0254583 128.961 0.0168934C128.611 0.0112815 128.252 0.00454249 127.901 0.00229999C127.488 0 127.068 0 126.655 0V0.0001495Z" fill="#A6A6A6"/>
<path d="M9.71159 44.9937C9.36121 44.9937 9.0193 44.9892 8.67166 44.9814C7.95151 44.972 7.23305 44.9093 6.52216 44.7938C5.85929 44.6797 5.21715 44.4673 4.61691 44.1638C4.02218 43.8627 3.47974 43.468 3.01037 42.9947C2.5342 42.5269 2.13777 41.9844 1.83679 41.3887C1.53249 40.7891 1.32189 40.1464 1.21234 39.4829C1.09403 38.7701 1.03002 38.0492 1.02086 37.3267C1.01357 37.0841 1.00403 36.2766 1.00403 36.2766V9.71106C1.00403 9.71106 1.01419 8.91594 1.02092 8.68234C1.02969 7.96093 1.09333 7.24123 1.21128 6.52947C1.32103 5.86422 1.53179 5.21965 1.83626 4.61806C2.13614 4.02272 2.53037 3.47983 3.00366 3.01042C3.47643 2.53656 4.02061 2.13979 4.61635 1.83459C5.21521 1.532 5.85613 1.32114 6.51766 1.20906C7.23089 1.09241 7.95185 1.02934 8.67449 1.02039L9.71216 1.00635H127.896L128.946 1.02095C129.662 1.02946 130.376 1.09196 131.083 1.20793C131.751 1.32142 132.399 1.53375 133.004 1.83796C134.198 2.45303 135.169 3.42613 135.782 4.62087C136.081 5.2183 136.289 5.85761 136.397 6.51712C136.516 7.23472 136.583 7.96007 136.597 8.6874C136.6 9.01308 136.6 9.36291 136.6 9.71106C136.609 10.1423 136.609 10.5528 136.609 10.9666V35.0345C136.609 35.4523 136.609 35.86 136.6 36.271C136.6 36.645 136.6 36.9875 136.596 37.3401C136.582 38.0545 136.517 38.7669 136.399 39.4717C136.292 40.1399 136.083 40.7876 135.778 41.3921C135.475 41.9814 135.081 42.5192 134.61 42.9857C134.141 43.4615 133.597 43.8586 133.001 44.1616C132.397 44.4675 131.75 44.6806 131.083 44.7938C130.372 44.9099 129.653 44.9726 128.933 44.9814C128.596 44.9892 128.244 44.9937 127.901 44.9937L126.655 44.996L9.71159 44.9937Z" fill="black"/>
<path d="M28.4844 23.3461C28.4968 22.3863 28.7517 21.4451 29.2255 20.6103C29.6994 19.7755 30.3767 19.074 31.1944 18.5713C30.6749 17.8294 29.9896 17.2188 29.1928 16.788C28.3961 16.3573 27.5099 16.1183 26.6046 16.09C24.6735 15.8873 22.8013 17.2455 21.8173 17.2455C20.8142 17.2455 19.2991 16.1101 17.6675 16.1437C16.6122 16.1777 15.5837 16.4846 14.6822 17.0344C13.7808 17.5842 13.0371 18.3581 12.5237 19.2807C10.2996 23.1314 11.9586 28.7905 14.0891 31.9031C15.155 33.4273 16.4008 35.1298 18.0308 35.0694C19.6259 35.0033 20.2217 34.0523 22.1471 34.0523C24.0547 34.0523 24.6136 35.0694 26.2767 35.031C27.9884 35.0033 29.0668 33.5001 30.0953 31.9615C30.8612 30.8755 31.4505 29.6753 31.8415 28.4052C30.8471 27.9846 29.9985 27.2806 29.4015 26.3809C28.8045 25.4813 28.4855 24.4258 28.4844 23.3461Z" fill="white"/>
<path d="M25.3433 14.0425C26.2765 12.9222 26.7363 11.4822 26.625 10.0283C25.1992 10.1781 23.8821 10.8595 22.9363 11.9369C22.4738 12.4632 22.1196 13.0755 21.8939 13.7388C21.6682 14.402 21.5755 15.1033 21.621 15.8025C22.3342 15.8098 23.0397 15.6552 23.6844 15.3504C24.3292 15.0455 24.8964 14.5983 25.3433 14.0425Z" fill="white"/>
<path d="M48.6474 31.2108H43.204L41.8968 35.0707H39.5912L44.7471 20.79H47.1425L52.2984 35.0707H49.9535L48.6474 31.2108ZM43.7678 29.4296H48.0826L45.9555 23.1653H45.896L43.7678 29.4296Z" fill="white"/>
<path d="M63.4334 29.8651C63.4334 33.1006 61.7017 35.1794 59.0884 35.1794C58.4264 35.214 57.768 35.0615 57.1886 34.7394C56.6093 34.4172 56.1323 33.9384 55.8125 33.3578H55.763V38.5148H53.6259V24.6587H55.6945V26.3904H55.7338C56.0684 25.8126 56.5534 25.3363 57.1372 25.0122C57.721 24.688 58.3817 24.5282 59.0491 24.5498C61.6915 24.5498 63.4334 26.6386 63.4334 29.8651ZM61.2367 29.8651C61.2367 27.7572 60.1474 26.3714 58.4853 26.3714C56.8524 26.3714 55.754 27.7864 55.754 29.8651C55.754 31.963 56.8524 33.3679 58.4853 33.3679C60.1474 33.3679 61.2367 31.9922 61.2367 29.8651Z" fill="white"/>
<path d="M74.893 29.8651C74.893 33.1006 73.1613 35.1794 70.548 35.1794C69.886 35.214 69.2276 35.0615 68.6482 34.7393C68.0689 34.4172 67.5919 33.9384 67.2721 33.3578H67.2226V38.5148H65.0854V24.6587H67.1541V26.3904H67.1934C67.528 25.8126 68.013 25.3363 68.5968 25.0122C69.1805 24.688 69.8413 24.5282 70.5086 24.5498C73.1512 24.5498 74.893 26.6386 74.893 29.8651ZM72.6963 29.8651C72.6963 27.7572 71.607 26.3713 69.9449 26.3713C68.312 26.3713 67.2136 27.7864 67.2136 29.8651C67.2136 31.963 68.312 33.3679 69.9449 33.3679C71.607 33.3679 72.6964 31.9922 72.6964 29.8651H72.6963Z" fill="white"/>
<path d="M82.4668 31.0916C82.6251 32.5077 84.0009 33.4376 85.8808 33.4376C87.6822 33.4376 88.9782 32.5077 88.9782 31.2308C88.9782 30.1223 88.1965 29.4586 86.3458 29.0038L84.495 28.5579C81.8727 27.9245 80.6553 26.6982 80.6553 24.7081C80.6553 22.2442 82.8026 20.5518 85.8516 20.5518C88.8692 20.5518 90.9379 22.2442 91.0075 24.7081H88.8501C88.721 23.283 87.5429 22.4228 85.8213 22.4228C84.0997 22.4228 82.9216 23.2931 82.9216 24.5599C82.9216 25.5695 83.674 26.1636 85.5147 26.6184L87.0881 27.0047C90.0181 27.6976 91.2355 28.8746 91.2355 30.9635C91.2355 33.6352 89.1073 35.3085 85.7224 35.3085C82.5555 35.3085 80.4172 33.6745 80.2791 31.0915L82.4668 31.0916Z" fill="white"/>
<path d="M95.8478 22.1948V24.6588H97.8277V26.3512H95.8478V32.0911C95.8478 32.9828 96.2442 33.3983 97.1146 33.3983C97.3496 33.3942 97.5843 33.3777 97.8176 33.3489V35.0312C97.4263 35.1043 97.0285 35.1374 96.6305 35.13C94.5226 35.13 93.7005 34.3383 93.7005 32.319V26.3512H92.1866V24.6588H93.7005V22.1948H95.8478Z" fill="white"/>
<path d="M98.9744 29.8652C98.9744 26.5893 100.904 24.5308 103.912 24.5308C106.931 24.5308 108.852 26.5893 108.852 29.8652C108.852 33.1501 106.941 35.1997 103.912 35.1997C100.885 35.1997 98.9744 33.1501 98.9744 29.8652ZM106.674 29.8652C106.674 27.618 105.644 26.2917 103.912 26.2917C102.181 26.2917 101.152 27.6281 101.152 29.8652C101.152 32.1214 102.181 33.4376 103.912 33.4376C105.644 33.4376 106.674 32.1214 106.674 29.8652H106.674Z" fill="white"/>
<path d="M110.614 24.6586H112.652V26.4308H112.701C112.839 25.8773 113.163 25.3882 113.62 25.0456C114.076 24.703 114.636 24.5279 115.206 24.5497C115.452 24.5488 115.698 24.5756 115.938 24.6294V26.6284C115.627 26.5334 115.303 26.4898 114.978 26.4993C114.667 26.4867 114.358 26.5414 114.07 26.6597C113.783 26.7781 113.525 26.9572 113.313 27.1847C113.102 27.4123 112.942 27.683 112.845 27.9781C112.748 28.2733 112.716 28.586 112.751 28.8947V35.0703H110.614L110.614 24.6586Z" fill="white"/>
<path d="M125.792 32.0125C125.504 33.9026 123.663 35.1997 121.308 35.1997C118.28 35.1997 116.4 33.1703 116.4 29.9146C116.4 26.6488 118.29 24.5308 121.219 24.5308C124.099 24.5308 125.911 26.5096 125.911 29.6664V30.3987H118.557V30.5278C118.523 30.911 118.571 31.297 118.698 31.6602C118.824 32.0234 119.027 32.3555 119.292 32.6345C119.557 32.9134 119.878 33.1328 120.234 33.278C120.59 33.4233 120.973 33.4911 121.358 33.4769C121.863 33.5242 122.37 33.4073 122.803 33.1434C123.236 32.8796 123.573 32.4829 123.762 32.0125L125.792 32.0125ZM118.567 28.905H123.772C123.792 28.5605 123.739 28.2157 123.619 27.8923C123.499 27.5689 123.313 27.2739 123.073 27.0258C122.833 26.7776 122.544 26.5818 122.225 26.4504C121.906 26.3191 121.564 26.2551 121.219 26.2625C120.87 26.2604 120.525 26.3273 120.203 26.4592C119.881 26.5912 119.589 26.7856 119.342 27.0313C119.096 27.277 118.9 27.569 118.767 27.8906C118.634 28.2122 118.566 28.557 118.567 28.905V28.905Z" fill="white"/>
<path d="M43.7088 10.0405C44.0118 10.0262 44.3145 10.0758 44.5971 10.186C44.8797 10.2963 45.136 10.4647 45.3494 10.6803C45.5627 10.8959 45.7284 11.154 45.8356 11.4378C45.9428 11.7216 45.9892 12.0247 45.9717 12.3276C45.9838 12.6309 45.9323 12.9333 45.8207 13.2156C45.7091 13.4979 45.5398 13.7537 45.3236 13.9668C45.1074 14.1799 44.8491 14.3454 44.5653 14.4529C44.2814 14.5604 43.9782 14.6074 43.6751 14.591H42.0871V16.9022H41.0214V10.0405H43.7088ZM42.0871 13.6544H43.428C44.3455 13.6544 44.8835 13.1788 44.8835 12.3276C44.8835 11.4572 44.3646 10.9816 43.428 10.9816H42.0871L42.0871 13.6544Z" fill="white"/>
<path d="M46.9676 14.3108C46.9351 13.9705 46.974 13.6272 47.0819 13.3028C47.1898 12.9784 47.3643 12.6802 47.5943 12.4272C47.8242 12.1742 48.1045 11.9721 48.4171 11.8338C48.7297 11.6955 49.0678 11.624 49.4097 11.624C49.7515 11.624 50.0896 11.6955 50.4022 11.8338C50.7149 11.9721 50.9951 12.1742 51.2251 12.4272C51.455 12.6802 51.6295 12.9784 51.7374 13.3028C51.8453 13.6272 51.8843 13.9705 51.8517 14.3108C51.8849 14.6515 51.8464 14.9953 51.7388 15.3202C51.6312 15.6451 51.4568 15.9439 51.2268 16.1974C50.9968 16.4509 50.7163 16.6534 50.4034 16.792C50.0904 16.9307 49.7519 17.0023 49.4097 17.0023C49.0674 17.0023 48.7289 16.9307 48.416 16.792C48.103 16.6534 47.8226 16.4509 47.5926 16.1974C47.3626 15.9439 47.1882 15.6451 47.0805 15.3202C46.9729 14.9953 46.9344 14.6515 46.9676 14.3108ZM50.8005 14.3108C50.8005 13.1884 50.2963 12.532 49.4113 12.532C48.523 12.532 48.0233 13.1884 48.0233 14.3109C48.0233 15.4423 48.5231 16.0937 49.4113 16.0937C50.2963 16.0937 50.8005 15.4378 50.8005 14.3108Z" fill="white"/>
<path d="M54.3305 16.0843H54.2542V16.9025H53.2704V9.70264H54.2924V12.5467H54.3733C54.526 12.2603 54.7568 12.023 55.0388 11.8622C55.3208 11.7014 55.6426 11.6238 55.9669 11.6382C57.2786 11.6382 58.1063 12.6653 58.1063 14.3111C58.1063 15.9513 57.2741 16.9879 55.9669 16.9879C55.6374 17.0023 55.3103 16.9257 55.0216 16.7662C54.7329 16.6068 54.4938 16.3709 54.3305 16.0843ZM54.2733 14.3155C54.2789 15.3998 54.8112 16.0703 55.6715 16.0703C56.5373 16.0703 57.0551 15.4094 57.0551 14.3111C57.0551 13.2217 56.5373 12.5563 55.6715 12.5563C54.8157 12.5563 54.2789 13.2313 54.2733 14.3155Z" fill="white"/>
<path d="M59.3449 10.1926C59.337 10.0603 59.3691 9.92859 59.4369 9.81465C59.5047 9.70071 59.6052 9.60976 59.7253 9.55358C59.8454 9.49739 59.9796 9.47857 60.1106 9.49955C60.2415 9.52052 60.3631 9.58033 60.4596 9.67122C60.5562 9.76211 60.6232 9.8799 60.6521 10.0093C60.6809 10.1388 60.6702 10.2739 60.6214 10.3971C60.5725 10.5204 60.4878 10.6262 60.3782 10.7008C60.2685 10.7753 60.139 10.8152 60.0064 10.8154C59.9216 10.8197 59.8369 10.8068 59.7572 10.7776C59.6776 10.7483 59.6047 10.7032 59.5429 10.645C59.4811 10.5869 59.4317 10.5168 59.3977 10.4391C59.3637 10.3613 59.3457 10.2775 59.3449 10.1926ZM59.4965 11.7239H60.5151V16.9023H59.4965V11.7239Z" fill="white"/>
<path d="M66.5427 15.5042C66.4038 15.9775 66.103 16.3869 65.6928 16.6608C65.2826 16.9346 64.7892 17.0555 64.2988 17.0024C63.9576 17.0114 63.6186 16.946 63.3052 16.8109C62.9919 16.6757 62.7116 16.474 62.4841 16.2197C62.2565 15.9654 62.0869 15.6646 61.9872 15.3382C61.8875 15.0118 61.8601 14.6676 61.9067 14.3295C61.8613 13.9904 61.8893 13.6455 61.9887 13.3181C62.0882 12.9907 62.2568 12.6886 62.4832 12.432C62.7096 12.1755 62.9885 11.9706 63.3009 11.8312C63.6134 11.6918 63.9522 11.6212 64.2943 11.6241C65.7352 11.6241 66.6044 12.6085 66.6044 14.2346V14.5912H62.9478V14.6485C62.9318 14.8385 62.9557 15.0298 63.0179 15.2101C63.0802 15.3903 63.1794 15.5556 63.3092 15.6953C63.4391 15.8349 63.5967 15.9459 63.7719 16.0211C63.9472 16.0963 64.1362 16.1341 64.3269 16.132C64.5713 16.1613 64.819 16.1173 65.0384 16.0055C65.2578 15.8937 65.4389 15.7192 65.5589 15.5042L66.5427 15.5042ZM62.9478 13.8354H65.5633C65.5762 13.6616 65.5526 13.487 65.494 13.3229C65.4354 13.1588 65.3431 13.0087 65.2231 12.8824C65.103 12.7561 64.9579 12.6562 64.797 12.5893C64.636 12.5224 64.4629 12.4899 64.2887 12.4939C64.1119 12.4917 63.9365 12.5249 63.7728 12.5915C63.6091 12.6582 63.4603 12.7569 63.3354 12.8819C63.2104 13.0069 63.1117 13.1557 63.0452 13.3195C62.9786 13.4832 62.9455 13.6586 62.9478 13.8354H62.9478Z" fill="white"/>
<path d="M67.9766 11.7239H68.9604V12.5179H69.0368C69.1469 12.2422 69.3415 12.0086 69.5928 11.8505C69.844 11.6924 70.1388 11.618 70.435 11.6379C70.588 11.6359 70.7409 11.6502 70.8909 11.6806V12.6892C70.7034 12.6491 70.5122 12.6284 70.3204 12.6274C70.1518 12.6123 69.982 12.6325 69.8217 12.6869C69.6615 12.7414 69.5144 12.8287 69.3899 12.9433C69.2654 13.058 69.1663 13.1974 69.0989 13.3526C69.0315 13.5079 68.9973 13.6755 68.9985 13.8447V16.9022H67.9766L67.9766 11.7239Z" fill="white"/>
<path d="M71.9016 16.2084L74.7496 12.6703V12.5894H71.9206V11.7241H75.9721V12.4704L73.1852 15.9563V16.0372H76.0013V16.9025H71.9016V16.2084Z" fill="white"/>
<path d="M85.6403 16.9025H84.5802L83.5099 13.0886H83.4291L82.3633 16.9025H81.3133L79.8859 11.7241H80.9224L81.8501 15.6755H81.9264L82.9911 11.7241H83.9715L85.0361 15.6755H85.117L86.0401 11.7241H87.0621L85.6403 16.9025Z" fill="white"/>
</svg>
