<svg width="59" height="64" viewBox="0 0 59 64" fill="none" xmlns="http://www.w3.org/2000/svg">
<path opacity="0.05" d="M14.6724 53.007C16.1686 55.0076 18.1274 56.6118 20.3792 57.6807L30.5786 62.5225C37.4387 65.7789 45.6371 63.5027 49.8607 57.169L56.405 47.3551C58.0967 44.8181 59 41.833 59 38.779V23.1642C59 21.3906 58.6952 19.6303 58.0991 17.9609L55.7876 11.4874C53.9379 6.30724 49.4789 2.5122 44.0901 1.53164L37.0273 0.246487C35.0566 -0.112099 33.0351 -0.079155 31.077 0.343468L17.853 3.19769C13.6186 4.11163 9.96647 6.78294 7.7994 10.5513L2.05709 20.5367C-1.01868 25.8852 -0.61784 32.5628 3.07539 37.501L14.6724 53.007Z" fill="#ED7064"/>
<path fill-rule="evenodd" clip-rule="evenodd" d="M22.6279 15.136C22.5874 15.136 22.547 15.1389 22.5079 15.1433C21.9153 15.2098 21.4716 15.7171 21.4818 16.3125V18.6279H19.1693C18.5348 18.6294 18.0202 19.1439 18.0188 19.7784V42.9093C18.0202 43.5438 18.5348 44.0584 19.1693 44.0598H38.8255C38.9325 44.0613 39.038 44.0468 39.1406 44.0179C40.1278 47.3754 43.2395 49.8395 46.9091 49.8395C51.365 49.8395 54.9999 46.2045 54.9999 41.7472C54.9999 37.6887 51.9836 34.3213 48.0783 33.7519V19.7785C48.0754 19.144 47.5609 18.6294 46.9264 18.628H44.6139V16.3126C44.6197 15.9787 44.4824 15.6593 44.2352 15.4353C43.9881 15.2113 43.6557 15.1043 43.3247 15.1433C42.7321 15.2098 42.2884 15.7171 42.3 16.3126V18.628H37.675V16.3126C37.6808 15.9787 37.542 15.6593 37.2949 15.4353C37.0477 15.2113 36.7168 15.1043 36.3844 15.1433C35.7932 15.2113 35.351 15.7171 35.3625 16.3126V18.628H30.7346V16.3126C30.7404 15.9788 30.603 15.6593 30.3559 15.4353C30.1088 15.2113 29.7763 15.1043 29.4454 15.1434C28.8542 15.2113 28.4105 15.7172 28.4221 16.3126V18.628H23.7942V16.3126C23.7999 16.0004 23.6785 15.6998 23.4588 15.4772C23.2392 15.2561 22.94 15.1333 22.6278 15.1362L22.6279 15.136ZM20.3313 20.9406H21.4818V22.0911C21.4962 22.7198 22.0093 23.2228 22.638 23.2228C23.2667 23.2228 23.7813 22.7198 23.7943 22.0911V20.9406H28.4222V22.0911C28.415 22.4033 28.5335 22.7039 28.7518 22.9265C28.9686 23.149 29.2677 23.2733 29.5785 23.2733C29.8892 23.2733 30.187 23.149 30.4052 22.9265C30.6235 22.7039 30.742 22.4033 30.7348 22.0911V20.9406H35.3627V22.0911C35.3757 22.7198 35.8888 23.2228 36.519 23.2228C37.1477 23.2228 37.6608 22.7198 37.6752 22.0911V20.9406H42.3002V22.0911C42.3002 22.7314 42.8176 23.2488 43.4565 23.2488C44.0968 23.2488 44.6142 22.7314 44.6142 22.0911V20.9406H45.7661V33.7459C41.8478 34.3067 38.8082 37.6801 38.8082 41.7472H20.3312L20.3313 20.9406ZM22.6279 24.4036C22.3186 24.4021 22.0223 24.5235 21.8041 24.7418C21.5858 24.96 21.463 25.2563 21.4644 25.5656V30.1921C21.4659 30.5 21.5887 30.7934 21.8069 31.0087C22.0252 31.2255 22.32 31.3455 22.6279 31.344H27.2529C27.8874 31.3411 28.4019 30.8266 28.4034 30.1921V25.5656C28.4063 24.9268 27.8903 24.4065 27.2529 24.4036L22.6279 24.4036ZM30.7346 24.4036C30.0958 24.4065 29.5798 24.9268 29.5827 25.5656V30.1921C29.5856 30.8266 30.1001 31.3411 30.7346 31.344H35.3626C35.997 31.3411 36.5116 30.8266 36.513 30.1921V25.5656C36.5159 24.9268 36 24.4065 35.3626 24.4036H30.7346ZM38.8254 24.4036C38.188 24.4065 37.672 24.9268 37.6749 25.5656V30.1921C37.6764 30.8266 38.1909 31.3411 38.8254 31.344H43.4533C44.0922 31.3469 44.611 30.8309 44.6139 30.1921V25.5656C44.6154 25.2563 44.494 24.9615 44.2757 24.7432C44.0575 24.5249 43.7612 24.4036 43.4533 24.4036L38.8254 24.4036ZM23.7782 26.7161H26.0907V29.0315H23.7782V26.7161ZM31.8953 26.7161H34.2006V29.0315H31.8953V26.7161ZM39.9876 26.7161H42.3001V29.0315H39.9876V26.7161ZM22.6279 33.6406C22.32 33.6392 22.0252 33.7591 21.8069 33.9759C21.5887 34.1913 21.4658 34.4847 21.4644 34.7925V39.4175C21.463 39.7254 21.5858 40.0217 21.8041 40.2399C22.0223 40.4582 22.3186 40.5796 22.6279 40.5781H27.2529C27.8903 40.5752 28.4063 40.0564 28.4034 39.4176V34.7926C28.4019 34.1581 27.8874 33.6435 27.2529 33.6406L22.6279 33.6406ZM30.7346 33.6406C30.1001 33.6435 29.5856 34.158 29.5827 34.7926V39.4176C29.5798 40.0564 30.0958 40.5753 30.7346 40.5781H35.3626C36 40.5752 36.5159 40.0564 36.513 39.4176V34.7926C36.5116 34.1581 35.9971 33.6435 35.3626 33.6406H30.7346ZM23.7782 35.9531H26.0907V38.2656H23.7782V35.9531ZM31.8953 35.9531H34.2006V38.2656H31.8953V35.9531ZM46.9091 35.9719C50.1149 35.9719 52.6874 38.5417 52.6874 41.7473C52.6874 44.9544 50.1148 47.5359 46.9091 47.5359C43.702 47.5359 41.122 44.9546 41.122 41.7473C41.122 38.5415 43.7019 35.9719 46.9091 35.9719ZM46.8932 38.2656C46.5854 38.2685 46.292 38.3943 46.0781 38.6125C45.8627 38.8322 45.7442 39.1285 45.7471 39.4349V41.7474C45.7471 42.0567 45.8685 42.3515 46.0868 42.5698C46.305 42.7881 46.5999 42.9095 46.9092 42.9095H49.2231C49.8518 42.895 50.3548 42.3819 50.3548 41.7532C50.3548 41.1245 49.8518 40.61 49.2231 40.597H48.0596V39.4349C48.064 39.1242 47.9426 38.825 47.7229 38.6053C47.5032 38.3856 47.204 38.2628 46.8933 38.2657L46.8932 38.2656Z" fill="#ED7064"/>
</svg>
