<?xml version="1.0" encoding="utf-8"?>
<!-- Generator: Adobe Illustrator 24.2.3, SVG Export Plug-In . SVG Version: 6.00 Build 0)  -->
<svg version="1.1" id="Layer_1" xmlns="http://www.w3.org/2000/svg" xmlns:xlink="http://www.w3.org/1999/xlink" x="0px" y="0px"
	 viewBox="0 0 38 37.9" style="enable-background:new 0 0 38 37.9;" xml:space="preserve">
<path d="M27.7,17.7c0.7-0.6,0.4-1.8-0.6-1.9l-4.4-0.4c-0.4,0-0.8-0.3-0.9-0.7L20,10.6c-0.4-0.9-1.6-0.9-2,0l-1.7,4.1
	c-0.2,0.4-0.5,0.6-0.9,0.7L11,15.8c-1,0.1-1.4,1.3-0.6,1.9l3.4,2.9c0.3,0.3,0.4,0.7,0.4,1.1L13,26c-0.2,0.9,0.8,1.7,1.6,1.2l3.8-2.3
	c0.4-0.2,0.8-0.2,1.1,0l3.8,2.3c0.8,0.5,1.8-0.2,1.6-1.2l-1-4.3c-0.1-0.4,0-0.8,0.4-1.1L27.7,17.7z"/>
<path d="M19,6c0.7,0,1.2-0.6,1.2-1.2V1.2C20.2,0.5,19.6,0,19,0c-0.6,0-1.2,0.6-1.2,1.2v3.6C17.8,5.4,18.4,6,19,6z"/>
<path d="M8.1,9.8C8.4,10,8.7,10.1,9,10.1c0.3,0,0.6-0.1,0.8-0.4c0.5-0.5,0.5-1.2,0-1.7L7.2,5.5C6.8,5,6,5,5.5,5.5S5,6.7,5.5,7.2
	L8.1,9.8z"/>
<path d="M6,18.9c0-0.7-0.6-1.2-1.2-1.2H1.2c-0.7,0-1.2,0.5-1.2,1.2s0.6,1.2,1.2,1.2h3.6C5.4,20.1,6,19.6,6,18.9z"/>
<path d="M8,28.1l-2.6,2.6c-0.5,0.5-0.5,1.2,0,1.7c0.2,0.2,0.6,0.4,0.8,0.4c0.3,0,0.6-0.1,0.8-0.4l2.6-2.6c0.5-0.5,0.5-1.2,0-1.7
	C9.3,27.6,8.5,27.6,8,28.1L8,28.1z"/>
<path d="M18.9,31.9c-0.7,0-1.2,0.6-1.2,1.2v3.6c0,0.7,0.6,1.2,1.2,1.2c0.6,0,1.2-0.6,1.2-1.2v-3.6C20.1,32.5,19.6,31.9,18.9,31.9z"
	/>
<path d="M29.8,28.2c-0.5-0.5-1.2-0.5-1.7,0s-0.5,1.2,0,1.7l2.6,2.6c0.2,0.2,0.6,0.4,0.8,0.4c0.3,0,0.6-0.1,0.8-0.4
	c0.5-0.5,0.5-1.2,0-1.7L29.8,28.2z"/>
<path d="M36.8,17.8h-3.6c-0.7,0-1.2,0.6-1.2,1.2c0,0.6,0.6,1.2,1.2,1.2h3.6c0.7,0,1.2-0.6,1.2-1.2C38,18.4,37.4,17.8,36.8,17.8z"/>
<path d="M29,10.2c0.3,0,0.6-0.1,0.8-0.4l2.6-2.6c0.5-0.5,0.5-1.2,0-1.7c-0.5-0.5-1.2-0.5-1.7,0l-2.5,2.6c-0.5,0.5-0.5,1.2,0,1.7
	C28.4,10.1,28.7,10.2,29,10.2L29,10.2z"/>
</svg>
