<svg width="201" height="42" viewBox="0 0 201 42" fill="none" xmlns="http://www.w3.org/2000/svg">
<path d="M56.5325 39.3609C56.243 39.3659 55.9553 39.3138 55.6859 39.2077C55.4165 39.1015 55.1706 38.9434 54.9624 38.7423C54.7541 38.5412 54.5876 38.3011 54.4722 38.0357C54.3569 37.7702 54.295 37.4847 54.2901 37.1954V7.89615C54.2805 7.59637 54.3328 7.29783 54.4438 7.01917C54.5549 6.7405 54.7222 6.4877 54.9354 6.27654C55.2492 5.9527 55.6537 5.7312 56.0958 5.64108C56.5379 5.55097 56.9969 5.59645 57.4126 5.77156C57.8284 5.94668 58.1815 6.24325 58.4256 6.62238C58.6697 7.00151 58.7935 7.44551 58.7806 7.89615V20.2904H78.8279V7.89615C78.817 7.59609 78.8689 7.29707 78.9803 7.01819C79.0916 6.73931 79.26 6.48672 79.4746 6.27654C79.6856 6.0711 79.9356 5.90994 80.2099 5.80255C80.4842 5.69516 80.7772 5.64372 81.0718 5.65126C81.3669 5.63827 81.6615 5.6872 81.9366 5.79489C82.2117 5.90258 82.4612 6.06666 82.669 6.27654C82.8725 6.49278 83.031 6.74736 83.1351 7.02543C83.2392 7.3035 83.2868 7.59949 83.2752 7.89615V37.1188C83.2909 37.7097 83.0731 38.283 82.669 38.7147C82.4643 38.9301 82.2159 39.0992 81.9404 39.2106C81.6649 39.3221 81.3687 39.3733 81.0718 39.3609C80.4868 39.3709 79.9219 39.1485 79.5011 38.7424C79.0803 38.3363 78.8381 37.7798 78.8279 37.1954V24.2441H58.7876V37.1132C58.796 37.4084 58.745 37.7023 58.6375 37.9775C58.53 38.2526 58.3682 38.5033 58.1618 38.7147C57.9504 38.9301 57.6962 39.0988 57.4156 39.2101C57.135 39.3214 56.8342 39.3728 56.5325 39.3609Z" fill="#ED7064"/>
<path d="M81.0717 39.5963C80.7496 39.6012 80.4296 39.5427 80.1301 39.4241C79.8306 39.3055 79.5574 39.1292 79.3261 38.905C79.0949 38.6809 78.91 38.4135 78.7822 38.118C78.6544 37.8225 78.5861 37.5047 78.5812 37.1829C78.5798 37.1578 78.5798 37.1327 78.5812 37.1076V24.4878H59.0175V37.1076C59.0246 37.4335 58.9666 37.7574 58.8469 38.0606C58.7273 38.3638 58.5484 38.6401 58.3207 38.8735C58.0879 39.1121 57.8079 39.2995 57.4986 39.424C57.1893 39.5484 56.8574 39.6071 56.5242 39.5963C55.8743 39.6052 55.2475 39.356 54.7813 38.9036C54.3151 38.4511 54.0477 37.8322 54.0378 37.1829V7.88363C54.0274 7.55089 54.0863 7.21962 54.2108 6.91084C54.3354 6.60207 54.5228 6.32252 54.7611 6.08994C54.9947 5.86243 55.2712 5.68368 55.5746 5.56412C55.8781 5.44457 56.2023 5.38661 56.5284 5.39363C56.8575 5.38194 57.1856 5.43769 57.4924 5.55744C57.7992 5.67718 58.0782 5.8584 58.3123 6.08994C58.5425 6.32468 58.7228 6.60344 58.8426 6.9095C58.9623 7.21556 59.019 7.54262 59.0092 7.87109V20.0161H78.5881V7.87806C78.5769 7.54571 78.635 7.21467 78.7585 6.9059C78.8821 6.59713 79.0685 6.31738 79.3059 6.08437C79.5397 5.85681 79.8165 5.67805 80.1201 5.5585C80.4238 5.43895 80.7482 5.38101 81.0745 5.38806C81.4018 5.37611 81.7281 5.43178 82.0329 5.55159C82.3377 5.6714 82.6145 5.85278 82.8459 6.08437C83.0705 6.32233 83.2457 6.60235 83.3615 6.90828C83.4773 7.21422 83.5313 7.54002 83.5205 7.86692V37.0951C83.5374 37.7469 83.2971 38.3791 82.8515 38.8554C82.6255 39.0993 82.3495 39.2917 82.0424 39.4195C81.7353 39.5473 81.4042 39.6076 81.0717 39.5963ZM58.5395 24.0031H79.0718V37.1076C79.0658 37.6316 79.2677 38.1365 79.6334 38.5121C79.999 38.8876 80.4987 39.1032 81.023 39.1116H81.0703C81.3348 39.1247 81.599 39.0803 81.8447 38.9815C82.0904 38.8827 82.3117 38.7318 82.4933 38.5393C82.8555 38.1521 83.0494 37.6373 83.0327 37.1076V7.88363C83.0445 7.618 83.0029 7.3527 82.9102 7.10344C82.8176 6.85419 82.6758 6.62604 82.4933 6.43252C82.3091 6.2443 82.087 6.0973 81.8417 6.00127C81.5964 5.90524 81.3335 5.86237 81.0703 5.87548C80.8064 5.86814 80.5437 5.91364 80.2976 6.00931C80.0516 6.10497 79.8272 6.24887 79.6376 6.43252C79.4453 6.61931 79.2948 6.84473 79.196 7.0939C79.0973 7.34308 79.0526 7.61034 79.0648 7.87806V20.5132H58.5395V7.88363C58.5665 7.38095 58.3925 6.88816 58.0558 6.51365C57.7192 6.13915 57.2475 5.9136 56.7444 5.88662C56.6766 5.88244 56.6087 5.88244 56.5409 5.88662C56.277 5.8792 56.0142 5.92467 55.7681 6.02034C55.5221 6.11601 55.2977 6.25995 55.1082 6.44366C54.9155 6.63018 54.7647 6.85555 54.666 7.10479C54.5672 7.35404 54.5227 7.62143 54.5353 7.8892V37.1132C54.5417 37.5094 54.6636 37.895 54.8863 38.2228C55.109 38.5506 55.4227 38.8063 55.7889 38.9584C56.155 39.1104 56.5576 39.1523 56.9472 39.0788C57.3369 39.0054 57.6965 38.8198 57.982 38.5448C58.1667 38.356 58.3112 38.1319 58.407 37.8859C58.5028 37.6399 58.5479 37.3771 58.5395 37.1132V24.0018V24.0031Z" fill="#ED7064"/>
<path d="M96.018 11.9097C95.3497 11.9165 94.6997 11.6911 94.1792 11.2721C93.6588 10.853 93.3002 10.2663 93.1648 9.61232C93.0294 8.95831 93.1255 8.27761 93.4368 7.6866C93.7481 7.0956 94.2552 6.631 94.8714 6.37225C95.4876 6.1135 96.1746 6.07667 96.8149 6.26807C97.4553 6.45946 98.0092 6.86718 98.382 7.42152C98.7548 7.97585 98.9233 8.64237 98.8587 9.30711C98.794 9.97184 98.5003 10.5935 98.0277 11.0658C97.7679 11.3357 97.4556 11.5498 97.11 11.6949C96.7644 11.84 96.3928 11.9131 96.018 11.9097ZM96.018 39.3623C95.7368 39.3707 95.4568 39.3236 95.1939 39.2237C94.9309 39.1239 94.6903 38.9732 94.4856 38.7804C94.281 38.5876 94.1164 38.3563 94.0013 38.0999C93.8861 37.8435 93.8227 37.5669 93.8145 37.2859C93.8145 37.2442 93.8145 37.2024 93.8145 37.1606V17.9564C93.8019 17.6616 93.851 17.3673 93.9588 17.0924C94.0665 16.8176 94.2306 16.5683 94.4403 16.3605C94.7476 16.0387 95.1456 15.8179 95.5815 15.7276C96.0174 15.6373 96.4705 15.6817 96.8805 15.855C97.2905 16.0282 97.638 16.3221 97.8768 16.6975C98.1156 17.0728 98.2343 17.512 98.2173 17.9564V37.1606C98.229 37.4511 98.1823 37.7409 98.0801 38.0131C97.9779 38.2853 97.8222 38.5343 97.6222 38.7454C97.413 38.9548 97.1621 39.1179 96.8857 39.2242C96.6094 39.3305 96.3137 39.3776 96.018 39.3623Z" fill="#ED7064"/>
<path d="M96.0181 39.6047C95.6946 39.614 95.3727 39.5571 95.0721 39.4373C94.7715 39.3176 94.4986 39.1376 94.2703 38.9084C94.0421 38.6795 93.8626 38.4067 93.7428 38.1066C93.623 37.8064 93.5654 37.4851 93.5735 37.162V17.9537C93.5614 17.6266 93.6171 17.3006 93.737 16.996C93.8569 16.6915 94.0385 16.4149 94.2703 16.1837C95.9651 16.3049 96.74 16.3049 97.7128 16.1043C98.3958 15.9651 98.4905 17.2588 98.4654 17.9537V37.1593C98.4813 37.8069 98.2404 38.4347 97.7951 38.9056C97.5632 39.1384 97.2856 39.3207 96.9798 39.441C96.674 39.5613 96.3465 39.6171 96.0181 39.6047ZM96.0181 15.9915C95.7592 15.982 95.5011 16.0248 95.2592 16.1174C95.0173 16.2101 94.7966 16.3505 94.6104 16.5305C94.4232 16.7154 94.2769 16.9375 94.1809 17.1824C94.0849 17.4273 94.0413 17.6896 94.0529 17.9523V37.1565C94.0438 37.4049 94.0837 37.6528 94.1705 37.8858C94.2572 38.1188 94.3891 38.3325 94.5585 38.5146C94.728 38.6967 94.9316 38.8436 95.1579 38.947C95.3842 39.0504 95.6286 39.1083 95.8773 39.1173H96.0167C96.2798 39.13 96.5426 39.087 96.7879 38.991C97.0331 38.895 97.2553 38.7482 97.4397 38.5602C97.6193 38.3749 97.7598 38.1553 97.853 37.9147C97.9461 37.674 97.9899 37.4171 97.9818 37.1593V17.9537C97.9957 17.6924 97.9557 17.4311 97.8641 17.186C97.7725 16.9409 97.6313 16.7173 97.4494 16.5291C97.0703 16.1586 96.5003 17.0513 95.9721 17.0791L96.0181 15.9915ZM96.0181 12.1507C95.2965 12.1561 94.5953 11.911 94.0345 11.4573C93.4736 11.0036 93.0879 10.3693 92.943 9.66294C92.7982 8.95655 92.9033 8.22183 93.2404 7.58428C93.5775 6.94674 94.1257 6.44592 94.7913 6.16738C95.4569 5.88884 96.1987 5.84987 96.8899 6.05711C97.5811 6.26435 98.1788 6.70495 98.581 7.30365C98.9832 7.90235 99.1648 8.622 99.0949 9.33967C99.0251 10.0573 98.708 10.7285 98.1979 11.2385C97.9157 11.5307 97.5769 11.7623 97.2021 11.9192C96.8273 12.076 96.4244 12.1548 96.0181 12.1507ZM96.0181 6.45071C95.4068 6.44334 94.8119 6.64843 94.3352 7.03091C93.8585 7.41339 93.5297 7.94948 93.4049 8.54748C93.2801 9.14547 93.3671 9.76822 93.6511 10.3092C93.935 10.8502 94.3983 11.2757 94.9616 11.5131C95.5249 11.7505 96.1532 11.7849 96.7391 11.6105C97.325 11.4361 97.8321 11.0637 98.1735 10.557C98.515 10.0503 98.6696 9.44078 98.611 8.83273C98.5524 8.22468 98.2842 7.65587 97.8522 7.22361C97.6159 6.97601 97.3311 6.77972 97.0156 6.64698C96.7 6.51424 96.3604 6.4479 96.0181 6.4521V6.45071Z" fill="#ED7064"/>
<path d="M81.0732 40.3301C80.655 40.3349 80.2399 40.2573 79.8518 40.1016C79.4637 39.946 79.11 39.7154 78.8111 39.4231C78.5123 39.1308 78.274 38.7825 78.1099 38.3981C77.9459 38.0137 77.8593 37.6007 77.8551 37.1828V25.2217H59.7493V37.116C59.7493 37.9688 59.4103 38.7867 58.8067 39.3897C58.2032 39.9928 57.3847 40.3315 56.5312 40.3315C55.6777 40.3315 54.8592 39.9928 54.2557 39.3897C53.6522 38.7867 53.3131 37.9688 53.3131 37.116V7.89197C53.3306 7.05129 53.6772 6.25095 54.2784 5.66259C54.8796 5.07423 55.6876 4.74472 56.5291 4.74472C57.3706 4.74472 58.1787 5.07423 58.7799 5.66259C59.3811 6.25095 59.7276 7.05129 59.7451 7.89197V19.3114H77.8523V7.89197C77.8421 7.47961 77.9134 7.06929 78.062 6.68446C78.2106 6.29964 78.4337 5.94785 78.7184 5.64921C79.0032 5.35058 79.3441 5.11096 79.7216 4.94404C80.0991 4.77712 80.5058 4.68618 80.9185 4.67643C80.9687 4.67643 81.0174 4.67643 81.0676 4.67643C81.4929 4.66495 81.916 4.74071 82.3108 4.89904C82.7056 5.05737 83.0637 5.29489 83.3631 5.59694C83.6547 5.90198 83.8826 6.26205 84.0334 6.65611C84.1841 7.05018 84.2548 7.47032 84.2411 7.89197V37.116C84.2587 37.9531 83.9487 38.764 83.377 39.3762C83.082 39.6885 82.7243 39.935 82.3272 40.0994C81.9302 40.2638 81.5028 40.3424 81.0732 40.3301ZM57.8106 23.2818H79.8049V37.116C79.7967 37.4456 79.9198 37.765 80.1472 38.0039C80.3745 38.2429 80.6876 38.3818 81.0174 38.3902H81.0816C81.2454 38.4033 81.4101 38.3798 81.5637 38.3212C81.7173 38.2627 81.8559 38.1707 81.9694 38.0518C82.086 37.9264 82.1764 37.7791 82.2355 37.6185C82.2946 37.4578 82.3212 37.287 82.3136 37.116V7.89197C82.3267 7.71957 82.3037 7.54633 82.2461 7.38329C82.1886 7.22025 82.0976 7.07098 81.9791 6.94499C81.8622 6.82854 81.7214 6.73875 81.5665 6.68178C81.4116 6.6248 81.2461 6.60201 81.0816 6.61495C80.9118 6.60788 80.7425 6.63575 80.584 6.69684C80.4255 6.75793 80.2813 6.85093 80.1603 6.97006C80.0395 7.08979 79.9453 7.2337 79.8841 7.39235C79.8228 7.55099 79.7959 7.72078 79.8049 7.89058V21.2485H57.8106V7.89058C57.8233 7.72035 57.7991 7.54938 57.7397 7.38933C57.6803 7.22928 57.5871 7.0839 57.4664 6.9631C57.344 6.84399 57.1978 6.75212 57.0373 6.69355C56.8768 6.63499 56.7058 6.61104 56.5354 6.6233C56.3658 6.6163 56.1966 6.64407 56.0381 6.70491C55.8797 6.76574 55.7354 6.85835 55.6141 6.97703C55.4944 7.09729 55.4013 7.24143 55.3411 7.40003C55.2808 7.55864 55.2546 7.72816 55.2643 7.89754V37.1174C55.2561 37.4471 55.3791 37.7667 55.6065 38.0058C55.8338 38.245 56.1469 38.3843 56.4769 38.393H56.541C56.711 38.4033 56.8813 38.3769 57.0403 38.3157C57.1992 38.2544 57.3431 38.1597 57.4622 38.0379C57.5813 37.9169 57.6743 37.7728 57.7354 37.6145C57.7965 37.4561 57.8245 37.2869 57.8176 37.1174V23.2804L57.8106 23.2818Z" fill="#ED7064"/>
<path d="M96.0195 40.3301C95.6111 40.338 95.2052 40.2655 94.8249 40.1166C94.4446 39.9678 94.0974 39.7455 93.8031 39.4626C93.5088 39.1796 93.2731 38.8415 93.1096 38.4675C92.9461 38.0935 92.8579 37.6911 92.8501 37.283C92.8501 37.2426 92.8501 37.2022 92.8501 37.1633V17.9647C92.8501 16.2155 94.2132 16.3144 95.9651 16.3116C97.717 16.3088 99.1874 16.2058 99.1902 17.9563V37.1744C99.1987 37.5863 99.1259 37.9958 98.9759 38.3795C98.826 38.7633 98.6018 39.1138 98.3163 39.4109C98.018 39.7146 97.6598 39.9531 97.2644 40.1113C96.869 40.2695 96.4451 40.344 96.0195 40.3301ZM96.0195 16.7183C95.8543 16.7094 95.6891 16.7343 95.5338 16.7912C95.3785 16.8482 95.2365 16.9362 95.1163 17.0497C94.999 17.1671 94.9086 17.3087 94.8516 17.4645C94.7945 17.6204 94.7722 17.7868 94.786 17.9521V37.1563C94.7761 37.3202 94.8011 37.4844 94.8592 37.6381C94.9173 37.7917 95.0073 37.9313 95.1233 38.0477C95.2393 38.1641 95.3786 38.2547 95.5321 38.3134C95.6856 38.3722 95.8498 38.3979 96.0139 38.3888C96.1794 38.4011 96.3456 38.378 96.5014 38.3208C96.6572 38.2636 96.7989 38.1738 96.917 38.0573C97.0305 37.9371 97.1183 37.7952 97.1754 37.64C97.2324 37.4849 97.2573 37.3199 97.2487 37.1549V17.9493C97.2621 17.7832 97.2403 17.6162 97.1849 17.459C97.1294 17.3019 97.0415 17.1582 96.9268 17.0372C96.8067 16.9234 96.6635 16.8367 96.507 16.7831C96.3504 16.7295 96.1841 16.7103 96.0195 16.7266V16.7183ZM96.0195 12.8774C95.1281 12.8832 94.2624 12.5795 93.5702 12.0183C92.878 11.4571 92.4023 10.6732 92.2243 9.80046C92.0462 8.92773 92.1769 8.02031 92.5941 7.23318C93.0112 6.44605 93.6889 5.82804 94.5114 5.48468C95.3339 5.14133 96.2501 5.09394 97.1037 5.35061C97.9573 5.60728 98.6952 6.15209 99.1914 6.89198C99.6877 7.63187 99.9114 8.52096 99.8245 9.40739C99.7376 10.2938 99.3454 11.1226 98.7149 11.7522C98.366 12.1132 97.9469 12.3993 97.4834 12.5928C97.0199 12.7863 96.5217 12.8831 96.0195 12.8774ZM96.0195 7.17747C95.5774 7.17239 95.1473 7.32097 94.8028 7.59778C94.4582 7.8746 94.2207 8.26244 94.1308 8.69495C94.0409 9.12746 94.1042 9.57776 94.3098 9.96878C94.5155 10.3598 94.8508 10.6673 95.2583 10.8385C95.6658 11.0098 96.1203 11.0342 96.5438 10.9077C96.9674 10.7811 97.3337 10.5114 97.5802 10.1447C97.8268 9.77798 97.9381 9.33708 97.8951 8.89743C97.8522 8.45777 97.6577 8.04669 97.3449 7.73451C97.1751 7.55445 96.9694 7.41187 96.7411 7.31593C96.5129 7.22 96.267 7.17283 96.0195 7.17747Z" fill="#ED7064"/>
<path d="M84.9728 4.18896H77.5917V41.0654H84.9728V4.18896Z" fill="#ED7064"/>
<path d="M99.735 15.5305H92.3539V41.0669H99.735V15.5305Z" fill="#ED7064"/>
<path d="M60.7207 4.18896H53.3396V41.0654H60.7207V4.18896Z" fill="#ED7064"/>
<path d="M106.214 17.0191C106.214 13.6666 107.615 10.7727 110.417 8.3375C113.218 5.90228 116.617 4.68374 120.613 4.68188C124.646 4.68188 128.027 5.91899 130.754 8.3932C133.481 10.8674 134.844 13.9516 134.844 17.6457C134.844 21.3752 133.462 24.4937 130.698 27.0013C127.934 29.509 124.479 30.7623 120.333 30.7614C118.95 30.7614 117.157 30.4559 114.954 29.845V24.0518L117.251 24.6088C117.936 24.7236 118.631 24.7749 119.325 24.762C122.163 24.762 124.346 24.1432 125.876 22.9056C127.405 21.6681 128.173 19.8818 128.178 17.5469C128.178 15.5823 127.431 13.9214 125.936 12.5641C124.441 11.2068 122.611 10.529 120.446 10.5309C118.352 10.5309 116.541 11.1993 115.01 12.5362C113.48 13.8731 112.714 15.5215 112.713 17.4814V41.1865H106.214V17.0191Z" fill="#ED7064"/>
<path d="M149.579 32.7682L146.554 29.0178L156.797 21.229C155.378 19.5912 153.659 18.7719 151.64 18.771C149.401 18.771 147.422 19.6293 145.703 21.3459C143.984 23.0626 143.129 25.022 143.138 27.2242C143.138 29.3521 143.941 31.2186 145.547 32.8239C147.152 34.4291 149.018 35.2322 151.145 35.2331C153.947 35.2331 156.356 33.8706 158.373 31.1458L163.643 34.1691L161.849 36.8012C161.549 37.2115 160.531 38.0698 158.795 39.3761C157.06 40.6824 154.529 41.3355 151.204 41.3355C147.133 41.3355 143.752 40.0014 141.062 37.3331C138.371 34.6649 137.026 31.2962 137.028 27.2269C137.028 23.1224 138.382 19.6873 141.091 16.9216C143.799 14.1559 147.226 12.7749 151.371 12.7786C154.286 12.7786 156.63 13.3848 158.404 14.5973C160.177 15.8098 161.391 16.8176 162.045 17.6207C162.696 18.4238 163.452 19.7393 164.314 21.5674L149.579 32.7682Z" fill="#ED7064"/>
<path d="M177.648 40.9971C174.624 40.9971 172.14 40.0488 170.197 38.152C168.254 36.2553 167.283 33.7435 167.283 30.6166V5.72778H173.782V13.3969H178.939V19.3852H173.782V30.6932C173.782 31.9995 174.193 33.063 175.015 33.8837C175.838 34.7044 176.921 35.1152 178.264 35.1161H178.937V40.9944L177.648 40.9971Z" fill="#ED7064"/>
<path d="M187.171 33.8865C188.441 34.8576 189.375 35.3432 189.974 35.3432C190.497 35.3432 190.983 35.119 191.431 34.6705C191.644 34.4688 191.813 34.2256 191.929 33.9559C192.044 33.6862 192.103 33.3958 192.102 33.1024C192.102 32.4312 191.766 31.7038 191.093 30.9202L186.442 25.3776C185.061 23.7733 184.37 22.0558 184.37 20.2249C184.37 18.098 185.192 16.3252 186.835 14.9066C188.479 13.4879 190.552 12.7791 193.054 12.78C194.512 12.78 195.726 12.9574 196.697 13.312C197.668 13.6667 198.77 14.3667 200.002 15.4121L196.473 19.8921C195.389 19.1085 194.454 18.7163 193.67 18.7154C193.148 18.7154 192.663 18.941 192.215 19.388C191.915 19.7593 191.729 20.2644 191.658 20.9031C191.658 21.4268 192.029 22.1184 192.773 22.9781L197.219 28.2784C198.557 29.9607 199.225 31.8096 199.224 33.8252C199.224 35.8798 198.431 37.6438 196.844 39.1172C195.257 40.5905 193.249 41.3282 190.82 41.33C189.492 41.349 188.169 41.1611 186.898 40.773C185.74 40.4016 184.526 39.7485 183.258 38.8136L187.171 33.8865Z" fill="#ED7064"/>
<path d="M40.2497 22.3488C42.2988 22.3488 43.9598 19.9184 43.9598 16.9204C43.9598 13.9223 42.2988 11.4919 40.2497 11.4919C38.2007 11.4919 36.5397 13.9223 36.5397 16.9204C36.5397 19.9184 38.2007 22.3488 40.2497 22.3488Z" fill="#ED7064"/>
<path d="M3.71203 22.3793C5.76105 22.3793 7.42211 19.9489 7.42211 16.9509C7.42211 13.9528 5.76105 11.5225 3.71203 11.5225C1.66301 11.5225 0.00195312 13.9528 0.00195312 16.9509C0.00195312 19.9489 1.66301 22.3793 3.71203 22.3793Z" fill="#ED7064"/>
<path d="M29.2868 15.6279C32.2364 15.6279 34.6275 12.1295 34.6275 7.81396C34.6275 3.49843 32.2364 0 29.2868 0C26.3372 0 23.946 3.49843 23.946 7.81396C23.946 12.1295 26.3372 15.6279 29.2868 15.6279Z" fill="#ED7064"/>
<path d="M14.5357 15.6279C17.4853 15.6279 19.8764 12.1295 19.8764 7.81396C19.8764 3.49843 17.4853 0 14.5357 0C11.5861 0 9.19495 3.49843 9.19495 7.81396C9.19495 12.1295 11.5861 15.6279 14.5357 15.6279Z" fill="#ED7064"/>
<path d="M39.2169 30.5803C39.1667 34.7582 36.2831 38.2397 32.2581 40.4219C30.679 41.2784 29.0846 41.536 27.3271 41.0026C25.5696 40.4693 23.8344 39.61 21.9181 39.61C18.8435 39.61 16.1105 41.6822 13.0122 40.9553C8.08683 39.798 4.55933 34.7317 4.55933 30.5775C4.55933 23.432 12.3042 17.6401 21.8582 17.6401C31.0567 17.6401 39.2699 23.5936 39.2169 30.526V30.5803Z" fill="#ED7064"/>
<path d="M16.9608 33.8127C16.8891 33.8145 16.8177 33.8022 16.7507 33.7763C16.6838 33.7504 16.6227 33.7116 16.5708 33.662C16.519 33.6124 16.4775 33.5531 16.4488 33.4874C16.42 33.4217 16.4046 33.351 16.4033 33.2793V26.0767C16.4012 26.003 16.4142 25.9296 16.4415 25.8611C16.4688 25.7926 16.5099 25.7304 16.5622 25.6784C16.6646 25.5755 16.8032 25.5166 16.9485 25.5142C17.0937 25.5119 17.2342 25.5663 17.3399 25.6659C17.3951 25.7187 17.4386 25.7827 17.4674 25.8534C17.4962 25.9242 17.5097 26.0003 17.5071 26.0767V29.1223H22.4423V26.0767C22.4394 26.0029 22.452 25.9293 22.4794 25.8607C22.5068 25.7921 22.5483 25.73 22.6012 25.6784C22.6528 25.628 22.7141 25.5884 22.7814 25.5621C22.8487 25.5358 22.9206 25.5232 22.9928 25.5252C23.0654 25.5217 23.1379 25.5335 23.2057 25.5599C23.2734 25.5863 23.3348 25.6267 23.3858 25.6784C23.436 25.7315 23.4751 25.7941 23.5007 25.8625C23.5263 25.9309 23.5379 26.0037 23.5349 26.0767V33.2612C23.5384 33.4065 23.4849 33.5475 23.3858 33.6539C23.3362 33.7059 23.2761 33.7469 23.2096 33.7742C23.1431 33.8015 23.0716 33.8146 22.9998 33.8127C22.9283 33.8147 22.8572 33.8026 22.7905 33.7771C22.7237 33.7516 22.6627 33.7131 22.6109 33.6639C22.5591 33.6147 22.5175 33.5558 22.4886 33.4905C22.4596 33.4252 22.4439 33.3549 22.4423 33.2835V30.0972H17.5155V33.2612C17.5171 33.3336 17.5042 33.4057 17.4776 33.4731C17.4511 33.5405 17.4114 33.602 17.3608 33.6539C17.3087 33.7066 17.2463 33.7479 17.1775 33.7752C17.1086 33.8026 17.0348 33.8153 16.9608 33.8127Z" fill="white"/>
<path d="M22.9998 33.8696C22.9206 33.8709 22.8419 33.8566 22.7683 33.8275C22.6946 33.7983 22.6275 33.755 22.5706 33.6999C22.5138 33.6448 22.4684 33.579 22.4371 33.5063C22.4057 33.4337 22.389 33.3555 22.3879 33.2764V30.1555H17.5712V33.2583C17.5732 33.3384 17.5592 33.418 17.53 33.4926C17.5008 33.5672 17.457 33.6353 17.4012 33.6928C17.3439 33.7513 17.275 33.7973 17.1989 33.8277C17.1229 33.8582 17.0413 33.8725 16.9594 33.8696C16.8802 33.8709 16.8015 33.8566 16.7279 33.8275C16.6543 33.7983 16.5871 33.755 16.5303 33.6999C16.4734 33.6448 16.428 33.579 16.3967 33.5063C16.3653 33.4337 16.3486 33.3555 16.3475 33.2764V26.0738C16.3446 25.9918 16.359 25.9102 16.3897 25.8341C16.4205 25.758 16.4669 25.6893 16.5259 25.6323C16.6115 25.5451 16.7212 25.4856 16.841 25.4616C16.9608 25.4376 17.0851 25.4501 17.1977 25.4976C17.3103 25.545 17.406 25.6252 17.4723 25.7277C17.5387 25.8302 17.5727 25.9503 17.5698 26.0724V29.0582H22.3823V26.0724C22.38 25.9914 22.3943 25.9107 22.4243 25.8354C22.4543 25.7601 22.4994 25.6917 22.5569 25.6344C22.6143 25.5772 22.6829 25.5323 22.7583 25.5025C22.8337 25.4726 22.9145 25.4585 22.9956 25.461C23.076 25.458 23.1561 25.4716 23.231 25.5011C23.3058 25.5306 23.3737 25.5753 23.4304 25.6323C23.4857 25.6909 23.5289 25.7598 23.5573 25.8351C23.5858 25.9104 23.599 25.9906 23.5963 26.071V33.2555C23.6007 33.4155 23.5415 33.5707 23.4318 33.6872C23.3769 33.7466 23.31 33.7936 23.2355 33.825C23.161 33.8565 23.0806 33.8717 22.9998 33.8696ZM17.4611 30.0358H22.5092V33.2583C22.5077 33.3873 22.5575 33.5117 22.6476 33.6041C22.7377 33.6965 22.8609 33.7494 22.99 33.7513H22.9998C23.0647 33.7547 23.1295 33.744 23.1899 33.7199C23.2503 33.6959 23.3048 33.6591 23.3496 33.612C23.3939 33.5653 23.4285 33.5102 23.4512 33.4499C23.474 33.3896 23.4844 33.3254 23.482 33.2611V26.0738C23.4852 26.0085 23.4751 25.9433 23.4523 25.882C23.4296 25.8207 23.3946 25.7647 23.3496 25.7173C23.3043 25.6708 23.2498 25.6344 23.1895 25.6104C23.1293 25.5864 23.0646 25.5753 22.9998 25.578C22.9349 25.5766 22.8703 25.5881 22.81 25.6121C22.7497 25.636 22.6948 25.6718 22.6485 25.7173C22.6012 25.7631 22.5643 25.8184 22.5402 25.8797C22.5162 25.941 22.5056 26.0067 22.5092 26.0724V29.1779H17.4541V26.0724C17.4573 26.0108 17.4483 25.9491 17.4274 25.891C17.4066 25.833 17.3745 25.7796 17.3329 25.734C17.2913 25.6884 17.241 25.6515 17.185 25.6254C17.1291 25.5994 17.0685 25.5847 17.0068 25.5822H16.9566C16.8915 25.5809 16.8268 25.5925 16.7663 25.6164C16.7057 25.6403 16.6506 25.676 16.604 25.7215C16.5572 25.7677 16.5207 25.8231 16.4967 25.8843C16.4727 25.9454 16.4617 26.0109 16.4646 26.0766V33.2611C16.4659 33.3588 16.4957 33.4539 16.5505 33.5349C16.6053 33.6158 16.6827 33.6789 16.773 33.7163C16.8632 33.7538 16.9626 33.764 17.0586 33.7457C17.1546 33.7275 17.2432 33.6814 17.3134 33.6134C17.3591 33.567 17.395 33.5119 17.419 33.4514C17.4429 33.3909 17.4544 33.3261 17.4528 33.2611V30.0358H17.4611Z" fill="white"/>
<path d="M26.668 27.0639C26.5036 27.0658 26.3435 27.0105 26.2153 26.9075C26.0872 26.8045 25.9988 26.6603 25.9653 26.4994C25.9318 26.3384 25.9553 26.1709 26.0318 26.0254C26.1083 25.8799 26.233 25.7655 26.3846 25.7018C26.5362 25.638 26.7053 25.6289 26.8629 25.6759C27.0205 25.7229 27.1568 25.8232 27.2486 25.9596C27.3404 26.096 27.3818 26.26 27.3659 26.4236C27.35 26.5872 27.2777 26.7402 27.1614 26.8564C27.0975 26.9226 27.0209 26.9751 26.936 27.0108C26.8512 27.0464 26.76 27.0645 26.668 27.0639ZM26.668 33.8125C26.5988 33.8145 26.5299 33.8029 26.4652 33.7783C26.4005 33.7538 26.3413 33.7167 26.2909 33.6692C26.2406 33.6217 26.2001 33.5648 26.1718 33.5017C26.1434 33.4386 26.1278 33.3705 26.1259 33.3014V28.5484C26.1259 28.4022 26.3029 29.0302 26.4046 28.9258C26.4538 28.8759 26.5123 28.8364 26.5769 28.8093C26.6415 28.7823 26.7109 28.7684 26.7809 28.7684C26.8509 28.7684 26.9203 28.7823 26.9849 28.8093C27.0495 28.8364 27.1081 28.8759 27.1572 28.9258C27.2687 29.033 27.2116 28.3938 27.206 28.5484V33.2694C27.2088 33.3408 27.1973 33.4121 27.1722 33.4791C27.147 33.546 27.1088 33.6073 27.0597 33.6593C27.0086 33.7105 26.9474 33.7506 26.8799 33.777C26.8125 33.8034 26.7404 33.8154 26.668 33.8125Z" fill="white"/>
<path d="M26.6681 33.8724C26.5889 33.8748 26.51 33.8613 26.4361 33.8329C26.3621 33.8044 26.2946 33.7615 26.2374 33.7067C26.1812 33.6529 26.137 33.5879 26.1074 33.516C26.0779 33.444 26.0638 33.3667 26.066 33.2889V28.7629C26.0638 28.6852 26.0779 28.6079 26.1074 28.5359C26.137 28.4639 26.1812 28.399 26.2374 28.3451C26.3495 28.2345 26.4997 28.1708 26.6572 28.1671C26.8148 28.1635 26.9677 28.2202 27.0848 28.3256C27.1456 28.3804 27.1936 28.4478 27.2254 28.5231C27.2572 28.5984 27.272 28.6798 27.2688 28.7615V33.2875C27.2719 33.3648 27.2588 33.4418 27.2305 33.5137C27.2022 33.5856 27.1592 33.6509 27.1043 33.7053C27.0466 33.7611 26.9782 33.8046 26.9032 33.8333C26.8283 33.862 26.7483 33.8753 26.6681 33.8724ZM26.6681 28.1766C26.6047 28.1738 26.5414 28.1838 26.482 28.206C26.4226 28.2283 26.3683 28.2624 26.3224 28.3062C26.2762 28.3501 26.2398 28.4033 26.2158 28.4624C26.1917 28.5215 26.1806 28.585 26.1831 28.6487V33.2834C26.1814 33.3439 26.1917 33.4042 26.2133 33.4607C26.235 33.5173 26.2676 33.5691 26.3093 33.613C26.3509 33.657 26.4009 33.6923 26.4562 33.717C26.5116 33.7417 26.5712 33.7552 26.6318 33.7569H26.6653C26.73 33.759 26.7946 33.7478 26.8548 33.7238C26.915 33.6998 26.9696 33.6637 27.0151 33.6176C27.0588 33.573 27.0929 33.52 27.1154 33.4619C27.138 33.4037 27.1484 33.3415 27.1461 33.2792V28.6487C27.1495 28.5856 27.1396 28.5226 27.117 28.4635C27.0944 28.4045 27.0597 28.3509 27.0151 28.3062C26.9689 28.2616 26.914 28.2271 26.8537 28.2048C26.7935 28.1826 26.7294 28.173 26.6653 28.1766H26.6681ZM26.6681 27.1224C26.4904 27.124 26.3178 27.0639 26.1796 26.9523C26.0414 26.8408 25.9463 26.6847 25.9105 26.5109C25.8747 26.337 25.9005 26.1561 25.9833 25.9991C26.0662 25.8421 26.2011 25.7188 26.3649 25.6501C26.5288 25.5815 26.7114 25.5719 26.8815 25.6229C27.0517 25.6738 27.1988 25.7823 27.2978 25.9297C27.3968 26.077 27.4415 26.2542 27.4243 26.4309C27.407 26.6075 27.3289 26.7727 27.2033 26.8982C27.1342 26.9702 27.051 27.0273 26.959 27.0658C26.8669 27.1044 26.7679 27.1237 26.6681 27.1224ZM26.6681 25.7215C26.5182 25.7198 26.3723 25.7702 26.2555 25.8641C26.1387 25.9579 26.0581 26.0895 26.0276 26.2361C25.9971 26.3828 26.0186 26.5355 26.0883 26.6681C26.158 26.8007 26.2717 26.905 26.4098 26.9631C26.548 27.0213 26.7021 27.0296 26.8457 26.9868C26.9894 26.9439 27.1137 26.8525 27.1974 26.7282C27.281 26.604 27.3189 26.4545 27.3045 26.3054C27.29 26.1563 27.2242 26.0168 27.1182 25.9108C27.0601 25.8502 26.9902 25.8021 26.9128 25.7695C26.8354 25.737 26.7521 25.7206 26.6681 25.7215Z" fill="white"/>
<path d="M22.9998 34.0508C22.7923 34.053 22.5924 33.9729 22.4439 33.828C22.2955 33.6831 22.2107 33.4852 22.2081 33.2779V30.3367H17.751V33.2612C17.7555 33.3678 17.7384 33.4741 17.7006 33.5739C17.6629 33.6737 17.6054 33.7648 17.5315 33.8418C17.4576 33.9188 17.3689 33.9801 17.2707 34.0219C17.1725 34.0638 17.0668 34.0854 16.9601 34.0854C16.8533 34.0854 16.7477 34.0638 16.6495 34.0219C16.5513 33.9801 16.4626 33.9188 16.3887 33.8418C16.3148 33.7648 16.2573 33.6737 16.2195 33.5739C16.1818 33.4741 16.1647 33.3678 16.1692 33.2612V26.0753C16.1777 25.8714 16.2648 25.6788 16.4122 25.5375C16.5596 25.3963 16.7559 25.3175 16.9601 25.3175C17.1643 25.3175 17.3606 25.3963 17.508 25.5375C17.6554 25.6788 17.7425 25.8714 17.751 26.0753V28.8828H22.2012V26.0753C22.1988 25.974 22.2164 25.8732 22.253 25.7786C22.2895 25.6841 22.3444 25.5977 22.4144 25.5244C22.4845 25.4511 22.5683 25.3922 22.661 25.3513C22.7538 25.3103 22.8538 25.288 22.9552 25.2857H22.9914C23.0959 25.2828 23.1999 25.3014 23.297 25.3402C23.3941 25.379 23.4822 25.4372 23.5559 25.5113C23.6276 25.5862 23.6836 25.6747 23.7207 25.7715C23.7578 25.8684 23.7752 25.9717 23.7719 26.0753V33.2598C23.777 33.466 23.7009 33.666 23.56 33.8168C23.4882 33.8928 23.4012 33.9528 23.3047 33.9931C23.2082 34.0334 23.1043 34.0531 22.9998 34.0508ZM17.2855 29.859H22.6932V33.2598C22.6913 33.3408 22.7216 33.4193 22.7775 33.478C22.8334 33.5367 22.9103 33.5709 22.9914 33.5731H22.9998C23.04 33.5761 23.0804 33.5703 23.1182 33.5561C23.156 33.5419 23.1902 33.5197 23.2186 33.491C23.276 33.428 23.3061 33.3449 23.3022 33.2598V26.0753C23.3057 26.0329 23.3002 25.9903 23.286 25.9502C23.2719 25.9101 23.2494 25.8735 23.22 25.8427C23.1912 25.8143 23.1566 25.7925 23.1186 25.7788C23.0806 25.7651 23.04 25.7598 22.9998 25.7634C22.9581 25.7615 22.9165 25.7683 22.8776 25.7834C22.8387 25.7985 22.8034 25.8216 22.774 25.8511C22.7439 25.8801 22.7205 25.9153 22.7054 25.9543C22.6902 25.9932 22.6837 26.035 22.6862 26.0767V29.3605H17.2786V26.0753C17.282 26.0334 17.2763 25.9913 17.2619 25.9519C17.2475 25.9125 17.2246 25.8766 17.1949 25.8469C17.1649 25.8173 17.1287 25.7945 17.0891 25.7801C17.0494 25.7657 17.0071 25.76 16.965 25.7634C16.9234 25.7615 16.8819 25.7683 16.8431 25.7831C16.8043 25.798 16.7689 25.8206 16.7392 25.8497C16.7097 25.8794 16.6868 25.9149 16.6719 25.954C16.657 25.9931 16.6505 26.0349 16.6528 26.0767V33.2612C16.6509 33.3422 16.6812 33.4207 16.7371 33.4794C16.793 33.5381 16.8699 33.5723 16.951 33.5745H16.9664C17.0083 33.5766 17.0501 33.5699 17.0893 33.5548C17.1284 33.5396 17.1639 33.5165 17.1935 33.4868C17.2226 33.4571 17.2453 33.4218 17.2602 33.3829C17.275 33.3441 17.2818 33.3027 17.2799 33.2612V29.859H17.2855Z" fill="white"/>
<path d="M26.668 34.0507C26.4726 34.0602 26.2813 33.9925 26.1355 33.8622C25.9897 33.7319 25.9011 33.5495 25.8889 33.3544V28.905C25.9007 28.7066 25.988 28.5202 26.1328 28.3839C26.2776 28.2476 26.469 28.1717 26.668 28.1717C26.8669 28.1717 27.0583 28.2476 27.2031 28.3839C27.3479 28.5202 27.4352 28.7066 27.447 28.905V33.3224C27.449 33.4186 27.4309 33.5142 27.3939 33.6032C27.357 33.6921 27.302 33.7724 27.2324 33.839C27.1572 33.9101 27.0685 33.9654 26.9715 34.0017C26.8746 34.0381 26.7714 34.0547 26.668 34.0507ZM26.668 28.9287C26.5878 28.9236 26.5086 28.949 26.4464 28.9997C26.418 29.0229 26.3958 29.0527 26.3815 29.0864C26.3671 29.1201 26.3612 29.1568 26.3641 29.1933V33.3084C26.3626 33.3447 26.3693 33.3809 26.3838 33.4142C26.3983 33.4474 26.4201 33.477 26.4477 33.5006C26.5117 33.5473 26.5888 33.5724 26.668 33.5724C26.7471 33.5724 26.8242 33.5473 26.8882 33.5006C26.9155 33.4766 26.9371 33.4467 26.9514 33.4132C26.9656 33.3797 26.9721 33.3434 26.9704 33.307V29.1919C26.9733 29.1554 26.9676 29.1188 26.9539 29.085C26.9401 29.0511 26.9185 29.0209 26.8909 28.9969C26.8283 28.9462 26.7482 28.9222 26.668 28.9301V28.9287ZM26.668 27.3007C26.4491 27.3026 26.2364 27.2285 26.0661 27.0911C25.8959 26.9538 25.7786 26.7616 25.7344 26.5474C25.6901 26.3333 25.7216 26.1104 25.8235 25.9169C25.9254 25.7234 26.0914 25.5712 26.2931 25.4863C26.4948 25.4015 26.7197 25.3892 26.9295 25.4516C27.1392 25.514 27.3208 25.6472 27.4432 25.8285C27.5655 26.0098 27.6212 26.2279 27.6005 26.4456C27.5799 26.6633 27.4843 26.8671 27.33 27.0222C27.2443 27.1106 27.1413 27.1805 27.0274 27.2275C26.9135 27.2745 26.7911 27.2975 26.668 27.2951V27.3007ZM26.668 25.8997C26.5595 25.8981 26.4537 25.9341 26.3689 26.0017C26.284 26.0692 26.2253 26.1641 26.2027 26.2702C26.1801 26.3763 26.1951 26.4869 26.245 26.5831C26.295 26.6793 26.3769 26.7553 26.4767 26.7979C26.5765 26.8405 26.688 26.8471 26.7921 26.8167C26.8963 26.7863 26.9866 26.7207 27.0477 26.631C27.1088 26.5414 27.1369 26.4334 27.1271 26.3254C27.1173 26.2174 27.0703 26.1162 26.9941 26.039C26.9522 25.9947 26.9016 25.9594 26.8455 25.9355C26.7894 25.9115 26.729 25.8993 26.668 25.8997Z" fill="white"/>
<path d="M23.953 25.166H22.1384V34.2319H23.953V25.166Z" fill="white"/>
<path d="M27.5809 28.1753H25.7662V34.2318H27.5809V28.1753Z" fill="white"/>
<path d="M17.9906 25.166H16.176V34.2319H17.9906V25.166Z" fill="white"/>
</svg>
