<?xml version="1.0" encoding="utf-8"?>
<!-- Generator: Adobe Illustrator 24.2.3, SVG Export Plug-In . SVG Version: 6.00 Build 0)  -->
<svg version="1.1" id="Layer_1" xmlns="http://www.w3.org/2000/svg" xmlns:xlink="http://www.w3.org/1999/xlink" x="0px" y="0px"
	 viewBox="0 0 37 34.7" style="enable-background:new 0 0 37 34.7;" xml:space="preserve">
<style type="text/css">
	.st0{fill-rule:evenodd;clip-rule:evenodd;}
</style>
<path class="st0" d="M4.6,0c0,0-0.1,0-0.1,0c-0.6,0.1-1,0.6-1,1.2v2.3H1.2C0.5,3.5,0,4,0,4.6v23.1c0,0.6,0.5,1.1,1.2,1.2h19.7
	c0.1,0,0.2,0,0.3,0c1,3.4,4.1,5.8,7.8,5.8c4.5,0,8.1-3.6,8.1-8.1c0-4.1-3-7.4-6.9-8v-14c0-0.6-0.5-1.1-1.2-1.2h-2.3V1.2
	c0-0.3-0.1-0.7-0.4-0.9C26,0.1,25.6,0,25.3,0c-0.6,0.1-1,0.6-1,1.2v2.3h-4.6V1.2c0-0.3-0.1-0.7-0.4-0.9C19,0.1,18.7,0,18.4,0
	c-0.6,0.1-1,0.6-1,1.2v2.3h-4.6V1.2c0-0.3-0.1-0.7-0.4-0.9C12.1,0.1,11.8,0,11.4,0c-0.6,0.1-1,0.6-1,1.2v2.3H5.8V1.2
	c0-0.3-0.1-0.6-0.3-0.8C5.2,0.1,4.9,0,4.6,0L4.6,0z M2.3,5.8h1.2V7c0,0.6,0.5,1.1,1.2,1.1c0.6,0,1.1-0.5,1.2-1.1V5.8h4.6V7
	c0,0.3,0.1,0.6,0.3,0.8c0.2,0.2,0.5,0.3,0.8,0.3c0.3,0,0.6-0.1,0.8-0.3c0.2-0.2,0.3-0.5,0.3-0.8V5.8h4.6V7c0,0.6,0.5,1.1,1.2,1.1
	c0.6,0,1.1-0.5,1.2-1.1V5.8h4.6V7c0,0.6,0.5,1.2,1.2,1.2c0.6,0,1.2-0.5,1.2-1.2V5.8h1.2v12.8c-3.9,0.6-7,3.9-7,8H2.3L2.3,5.8z
	 M4.6,9.3C4.3,9.3,4,9.4,3.8,9.6c-0.2,0.2-0.3,0.5-0.3,0.8v4.6c0,0.3,0.1,0.6,0.3,0.8c0.2,0.2,0.5,0.3,0.8,0.3h4.6
	c0.6,0,1.1-0.5,1.2-1.2v-4.6c0-0.6-0.5-1.2-1.2-1.2H4.6z M12.7,9.3c-0.6,0-1.2,0.5-1.2,1.2v4.6c0,0.6,0.5,1.1,1.2,1.2h4.6
	c0.6,0,1.1-0.5,1.2-1.2v-4.6c0-0.6-0.5-1.2-1.2-1.2H12.7z M20.8,9.3c-0.6,0-1.2,0.5-1.2,1.2v4.6c0,0.6,0.5,1.1,1.2,1.2h4.6
	c0.6,0,1.2-0.5,1.2-1.2v-4.6c0-0.3-0.1-0.6-0.3-0.8c-0.2-0.2-0.5-0.3-0.8-0.3H20.8z M5.8,11.6h2.3v2.3H5.8V11.6z M13.9,11.6h2.3v2.3
	h-2.3V11.6z M22,11.6h2.3v2.3H22V11.6z M4.6,18.5c-0.3,0-0.6,0.1-0.8,0.3c-0.2,0.2-0.3,0.5-0.3,0.8v4.6c0,0.3,0.1,0.6,0.3,0.8
	c0.2,0.2,0.5,0.3,0.8,0.3h4.6c0.6,0,1.2-0.5,1.2-1.2v-4.6c0-0.6-0.5-1.1-1.2-1.2H4.6z M12.7,18.5c-0.6,0-1.1,0.5-1.2,1.2v4.6
	c0,0.6,0.5,1.2,1.2,1.2h4.6c0.6,0,1.2-0.5,1.2-1.2v-4.6c0-0.6-0.5-1.1-1.2-1.2H12.7z M5.8,20.8h2.3v2.3H5.8V20.8z M13.9,20.8h2.3
	v2.3h-2.3V20.8z M28.9,20.8c3.2,0,5.8,2.6,5.8,5.8c0,3.2-2.6,5.8-5.8,5.8c-3.2,0-5.8-2.6-5.8-5.8C23.1,23.4,25.7,20.8,28.9,20.8z
	 M28.9,23.1c-0.3,0-0.6,0.1-0.8,0.3c-0.2,0.2-0.3,0.5-0.3,0.8v2.3c0,0.3,0.1,0.6,0.3,0.8c0.2,0.2,0.5,0.3,0.8,0.3h2.3
	c0.6,0,1.1-0.5,1.1-1.2s-0.5-1.1-1.1-1.2H30v-1.2c0-0.3-0.1-0.6-0.3-0.8C29.5,23.3,29.2,23.1,28.9,23.1L28.9,23.1z"/>
</svg>
