<?xml version="1.0" encoding="utf-8"?>
<!-- Generator: Adobe Illustrator 24.2.3, SVG Export Plug-In . SVG Version: 6.00 Build 0)  -->
<svg version="1.1" id="Layer_1" xmlns="http://www.w3.org/2000/svg" xmlns:xlink="http://www.w3.org/1999/xlink" x="0px" y="0px"
	 viewBox="0 0 36.1 36.1" style="enable-background:new 0 0 36.1 36.1;" xml:space="preserve">
<path d="M33.3,25.8H23c0.2-0.6,0.3-1.3,0.2-1.9c-0.3-1.8-2-3.2-4-3.2h-5c-0.3,0-0.6,0.1-0.8,0.3l-3.1,2.3v-1.3
	c0-0.7-0.6-1.3-1.3-1.3H1.3c-0.7,0-1.3,0.6-1.3,1.3v12.9c0,0.7,0.6,1.3,1.3,1.3H9c0.7,0,1.3-0.6,1.3-1.3v-0.5l3.3,1.6
	c0.2,0.1,0.4,0.1,0.6,0.1h7.4c1.3,0,2.5-0.3,3.7-0.8l9.2-4.1c1-0.5,1.7-1.5,1.7-2.6C36.1,27.1,34.8,25.8,33.3,25.8L33.3,25.8z
	 M7.7,33.5H2.6V23.2h5.2V33.5z M33.4,28.9L24.2,33c-0.8,0.4-1.7,0.6-2.6,0.6h-7.1l-4.2-2.1v-5l4.3-3.2h4.6c0.7,0,1.3,0.5,1.4,1.1
	c0.1,0.8-0.5,1.5-1.3,1.5c-0.7,0-1.3,0.6-1.3,1.3c0,0.7,0.6,1.3,1.3,1.3h13.9C33.6,28.4,33.6,28.8,33.4,28.9L33.4,28.9z"/>
<path d="M24.9,19c0.2,0.2,0.6,0.4,0.9,0.4c0.3,0,0.7-0.1,0.9-0.4l7.5-7.6c2.6-2.6,2.6-6.8,0-9.4c-1.2-1.3-2.9-2-4.7-2
	c-1.4,0-2.7,0.4-3.7,1.2c-2.5-1.8-6.1-1.6-8.4,0.8c-2.6,2.6-2.6,6.8,0,9.4L24.9,19z M19.2,3.8c1.6-1.6,4.1-1.6,5.6,0
	c0.5,0.5,1.4,0.5,1.8,0c1.5-1.5,4.1-1.5,5.6,0c1.6,1.6,1.6,4.2,0,5.8l-6.6,6.7l-6.6-6.7C17.7,8,17.7,5.4,19.2,3.8L19.2,3.8z"/>
</svg>
