<?xml version="1.0" encoding="utf-8"?>
<!-- Generator: Adobe Illustrator 24.2.3, SVG Export Plug-In . SVG Version: 6.00 Build 0)  -->
<svg version="1.1" id="Layer_1" xmlns="http://www.w3.org/2000/svg" xmlns:xlink="http://www.w3.org/1999/xlink" x="0px" y="0px"
	 viewBox="0 0 26 26" style="enable-background:new 0 0 26 26;" xml:space="preserve">
<path d="M23,10h-7V3c0-1.7-1.3-3-3-3c-1.7,0-3,1.3-3,3v7H3c-1.7,0-3,1.3-3,3c0,1.7,1.3,3,3,3h7v7c0,1.7,1.3,3,3,3c1.7,0,3-1.3,3-3
	v-7h7c1.7,0,3-1.3,3-3C26,11.3,24.7,10,23,10z"/>
</svg>
