<svg width="59" height="64" viewBox="0 0 59 64" fill="none" xmlns="http://www.w3.org/2000/svg">
<path opacity="0.05" d="M14.6724 10.993C16.1686 8.99236 18.1274 7.38819 20.3792 6.31926L30.5786 1.47754C37.4387 -1.77893 45.6371 0.497289 49.8607 6.83101L56.405 16.6449C58.0967 19.1819 59 22.167 59 25.221V40.8358C59 42.6094 58.6952 44.3697 58.0991 46.0391L55.7876 52.5126C53.9379 57.6928 49.4789 61.4878 44.0901 62.4684L37.0273 63.7535C35.0566 64.1121 33.0351 64.0792 31.077 63.6565L17.853 60.8023C13.6186 59.8884 9.96647 57.2171 7.7994 53.4487L2.05709 43.4633C-1.01868 38.1148 -0.61784 31.4372 3.07539 26.499L14.6724 10.993Z" fill="#ED7064"/>
<path d="M46.7095 38.24H36.4381C36.6531 37.6303 36.7153 36.9668 36.6078 36.3101C36.3088 34.4691 34.6073 33.08 32.6521 33.08H27.6297C27.3509 33.08 27.0788 33.1707 26.8554 33.3387L23.7597 35.66V34.37C23.7597 33.6579 23.1819 33.08 22.4697 33.08H14.7297C14.0175 33.08 13.4397 33.6579 13.4397 34.37V47.27C13.4397 47.9822 14.0175 48.56 14.7297 48.56H22.4697C23.1819 48.56 23.7597 47.9822 23.7597 47.27V46.7779L27.0519 48.424C27.2316 48.513 27.4298 48.56 27.6297 48.56H35.0171C36.2903 48.56 37.5232 48.298 38.6838 47.7806L47.8665 43.7007C48.8944 43.2438 49.5596 42.2209 49.5596 41.0904C49.5596 39.5183 48.2814 38.24 46.7092 38.24L46.7095 38.24ZM21.18 45.98H16.02V35.66H21.18V45.98ZM46.8187 41.3442L37.6361 45.4258C36.808 45.7937 35.9261 45.9802 35.0175 45.9802H27.9358L23.7601 43.8923V38.8849L28.0601 35.6599H32.6525C33.3462 35.6599 33.966 36.1269 34.0618 36.7232C34.1995 37.5614 33.5562 38.2399 32.7902 38.2399C32.0781 38.2399 31.5002 38.8178 31.5002 39.5299C31.5002 40.2421 32.0781 40.8199 32.7902 40.8199H46.7098C47.0004 40.8199 47.086 41.2231 46.819 41.344L46.8187 41.3442Z" fill="#ED7064"/>
<path d="M38.3194 31.4052C38.563 31.6521 38.8939 31.7898 39.2399 31.7898C39.5859 31.7898 39.9168 31.6521 40.1603 31.4052L47.6402 23.8062C50.1933 21.2128 50.1933 16.9916 47.6402 14.3982C46.3956 13.1351 44.7411 12.4397 42.9807 12.4397C41.6236 12.4397 40.3302 12.8529 39.2401 13.6189C36.7205 11.8485 33.1629 12.0399 30.84 14.3982C28.2869 16.9916 28.2869 21.2129 30.84 23.8062L38.3194 31.4052ZM32.6791 16.209C34.2396 14.6233 36.7591 14.6233 38.3194 16.209C38.8065 16.7011 39.6716 16.7011 40.1587 16.209C41.6687 14.6754 44.2907 14.6754 45.799 16.209C47.3711 17.8046 47.3711 20.4015 45.799 21.9972L39.2398 28.6605L32.6788 21.9955C31.1067 20.4015 31.1067 17.8046 32.6788 16.209H32.6791Z" fill="#ED7064"/>
</svg>
