<svg width="59" height="64" viewBox="0 0 59 64" fill="none" xmlns="http://www.w3.org/2000/svg">
<path opacity="0.05" d="M44.3276 10.993C42.8314 8.99236 40.8726 7.38819 38.6208 6.31926L28.4214 1.47754C21.5613 -1.77893 13.3629 0.497289 9.13929 6.83101L2.59504 16.6449C0.903259 19.1819 0 22.167 0 25.221V40.8358C0 42.6094 0.30476 44.3697 0.900856 46.0391L3.21241 52.5126C5.0621 57.6928 9.52111 61.4878 14.9099 62.4684L21.9727 63.7535C23.9434 64.1121 25.9649 64.0792 27.923 63.6565L41.147 60.8023C45.3814 59.8884 49.0335 57.2171 51.2006 53.4487L56.9429 43.4633C60.0187 38.1148 59.6178 31.4372 55.9246 26.499L44.3276 10.993Z" fill="#ED7064"/>
<path d="M36.7203 30.7591C37.4406 30.1185 37.0796 28.9185 36.1203 28.8388L31.6795 28.4794C31.2795 28.4388 30.9201 28.1997 30.7592 27.7997L29.0388 23.6793C28.6795 22.7996 27.3982 22.7996 27.0388 23.6793L25.3185 27.7997C25.1591 28.1591 24.7982 28.4404 24.3982 28.4794L19.9998 28.8794C19.0404 28.9591 18.6404 30.1591 19.3998 30.7997L22.7591 33.6794C23.0795 33.9591 23.1998 34.3591 23.1185 34.7591L22.0779 39.0795C21.8373 39.9998 22.8779 40.7592 23.6779 40.2388L27.4779 37.9185C27.8373 37.7185 28.2779 37.7185 28.5982 37.9185L32.3982 40.2388C33.2388 40.7592 34.2388 39.9982 33.9982 39.0795L32.9576 34.7591C32.8779 34.3591 32.9982 33.9591 33.3169 33.6794L36.7203 30.7591Z" fill="#ED7064"/>
<path d="M28.0408 19.0408C28.7205 19.0408 29.2408 18.4814 29.2408 17.8408V14.2408C29.2408 13.5611 28.6815 13.0408 28.0408 13.0408C27.4002 13.0408 26.8408 13.6001 26.8408 14.2408V17.8408C26.8408 18.4799 27.4002 19.0408 28.0408 19.0408Z" fill="#ED7064"/>
<path d="M17.1592 22.8C17.3998 23.0406 17.7186 23.1594 17.9999 23.1594C18.3202 23.1594 18.5999 23.0391 18.8405 22.8C19.3202 22.3203 19.3202 21.5594 18.8405 21.0797L16.2811 18.5203C15.8015 18.0407 15.0405 18.0407 14.5608 18.5203C14.0811 19 14.0811 19.761 14.5608 20.2407L17.1592 22.8Z" fill="#ED7064"/>
<path d="M15.0408 31.9592C15.0408 31.2795 14.4814 30.7592 13.8408 30.7592H10.2408C9.56109 30.7592 9.04077 31.2795 9.04077 31.9592C9.04077 32.6389 9.60013 33.1592 10.2408 33.1592H13.8408C14.4799 33.1592 15.0408 32.5999 15.0408 31.9592Z" fill="#ED7064"/>
<path d="M17.0795 41.1204L14.5202 43.6797C14.0405 44.1594 14.0405 44.9204 14.5202 45.4C14.7608 45.6407 15.0795 45.7594 15.3608 45.7594C15.6405 45.7594 15.9608 45.6391 16.2014 45.4L18.7608 42.8407C19.2405 42.361 19.2405 41.6 18.7608 41.1204C18.3202 40.6797 17.5592 40.6797 17.0796 41.1204H17.0795Z" fill="#ED7064"/>
<path d="M27.9593 44.9592C27.2796 44.9592 26.7593 45.5186 26.7593 46.1592V49.7592C26.7593 50.4389 27.3186 50.9592 27.9593 50.9592C28.5999 50.9592 29.1593 50.3999 29.1593 49.7592V46.1592C29.1593 45.5201 28.5999 44.9592 27.9593 44.9592Z" fill="#ED7064"/>
<path d="M38.8408 41.2C38.3611 40.7203 37.6002 40.7203 37.1205 41.2C36.6408 41.6797 36.6408 42.4406 37.1205 42.9203L39.6799 45.4797C39.9205 45.7203 40.2392 45.8391 40.5205 45.8391C40.8002 45.8391 41.1205 45.7187 41.3611 45.4797C41.8408 45 41.8408 44.239 41.3611 43.7594L38.8408 41.2Z" fill="#ED7064"/>
<path d="M45.8 30.8408H42.2C41.5203 30.8408 41 31.4001 41 32.0408C41 32.6814 41.5594 33.2408 42.2 33.2408H45.8C46.4797 33.2408 47 32.6814 47 32.0408C47 31.4001 46.4406 30.8408 45.8 30.8408Z" fill="#ED7064"/>
<path d="M38.0407 23.2C38.361 23.2 38.6407 23.0797 38.8814 22.8406L41.4407 20.2813C41.9204 19.8016 41.9204 19.0406 41.4407 18.561C40.9611 18.0813 40.2001 18.0813 39.7204 18.561L37.2001 21.1594C36.7204 21.6391 36.7204 22.4 37.2001 22.8797C37.4407 23.1203 37.7595 23.2 38.0407 23.2V23.2Z" fill="#ED7064"/>
</svg>
