<svg width="138" height="46" fill="none" xmlns="http://www.w3.org/2000/svg"><path d="M126.655 0H10.965c-.422 0-.838 0-1.26.002-.351.003-.7.01-1.056.015-.772.01-1.542.077-2.304.203a7.665 7.665 0 00-2.186.721A7.404 7.404 0 00.224 6.35C.095 7.11.027 7.88.017 8.652c-.01.353-.011.706-.017 1.06v26.58c.006.358.007.703.017 1.06.01.772.078 1.542.207 2.303.126.762.368 1.5.718 2.19A7.14 7.14 0 002.297 43.7a7.218 7.218 0 001.862 1.356 7.71 7.71 0 002.186.725 15.47 15.47 0 002.304.203c.356.008.705.013 1.057.013.42.002.837.002 1.259.002h115.69c.413 0 .833 0 1.246-.002.351 0 .71-.005 1.06-.013a15.26 15.26 0 002.3-.203 7.828 7.828 0 002.195-.725 7.239 7.239 0 001.86-1.356 7.346 7.346 0 001.358-1.856c.348-.69.588-1.428.712-2.19.129-.761.2-1.53.214-2.302.004-.358.004-.703.004-1.06.009-.418.009-.834.009-1.258V10.967c0-.421 0-.84-.009-1.256 0-.353 0-.706-.004-1.059a15.453 15.453 0 00-.214-2.302 7.609 7.609 0 00-.712-2.189 7.43 7.43 0 00-3.218-3.22 7.784 7.784 0 00-2.195-.72 14.994 14.994 0 00-2.3-.204c-.35-.006-.709-.012-1.06-.015C127.488 0 127.068 0 126.655 0z" fill="#A6A6A6"/><path d="M9.712 44.994c-.35 0-.693-.005-1.04-.013a14.59 14.59 0 01-2.15-.187 6.766 6.766 0 01-1.905-.63 6.218 6.218 0 01-1.607-1.17 6.12 6.12 0 01-1.173-1.605 6.58 6.58 0 01-.625-1.906 14.275 14.275 0 01-.191-2.156c-.007-.243-.017-1.05-.017-1.05V9.71s.01-.795.017-1.029c.009-.721.072-1.44.19-2.153.11-.665.32-1.31.625-1.91a6.4 6.4 0 012.78-2.783 6.696 6.696 0 011.902-.627c.713-.117 1.434-.18 2.156-.189l1.038-.014h118.184l1.05.015c.716.008 1.43.071 2.137.187a6.82 6.82 0 011.921.63 6.434 6.434 0 012.778 2.783c.299.597.507 1.237.615 1.896.119.718.186 1.443.2 2.17.003.326.003.676.003 1.024.009.431.009.842.009 1.256v24.068c0 .417 0 .825-.009 1.236 0 .374 0 .716-.004 1.07a14.645 14.645 0 01-.197 2.13 6.567 6.567 0 01-.621 1.921 6.292 6.292 0 01-1.168 1.594 6.214 6.214 0 01-1.609 1.176 6.744 6.744 0 01-1.918.632c-.711.116-1.43.179-2.15.187a45.11 45.11 0 01-1.032.013l-1.246.002-116.943-.002z" fill="#000"/><path d="M28.484 23.346a5.692 5.692 0 012.71-4.775 5.826 5.826 0 00-4.59-2.481c-1.93-.203-3.803 1.155-4.787 1.155-1.003 0-2.518-1.135-4.15-1.101a6.111 6.111 0 00-5.143 3.137c-2.224 3.85-.565 9.51 1.565 12.622 1.066 1.524 2.312 3.227 3.942 3.166 1.595-.066 2.19-1.017 4.116-1.017 1.908 0 2.467 1.017 4.13.979 1.711-.028 2.79-1.53 3.818-3.07a12.606 12.606 0 001.747-3.556 5.5 5.5 0 01-3.358-5.059zm-3.141-9.303a5.604 5.604 0 001.282-4.015 5.701 5.701 0 00-3.689 1.909 5.331 5.331 0 00-1.315 3.866 4.715 4.715 0 003.722-1.76zM48.647 31.21h-5.443l-1.307 3.86H39.59l5.156-14.28h2.395l5.156 14.28h-2.345l-1.306-3.86zm-4.88-1.78h4.316l-2.127-6.265h-.06l-2.128 6.265zm19.666.435c0 3.236-1.731 5.314-4.345 5.314a3.53 3.53 0 01-3.276-1.821h-.049v5.157h-2.137V24.659h2.069v1.731h.039a3.693 3.693 0 013.315-1.84c2.642 0 4.384 2.089 4.384 5.315zm-2.196 0c0-2.108-1.09-3.494-2.752-3.494-1.633 0-2.731 1.415-2.731 3.494 0 2.098 1.098 3.503 2.731 3.503 1.662 0 2.752-1.376 2.752-3.503zm13.656 0c0 3.236-1.732 5.314-4.345 5.314a3.53 3.53 0 01-3.276-1.821h-.05v5.157h-2.137V24.659h2.07v1.731h.038a3.693 3.693 0 013.316-1.84c2.642 0 4.384 2.089 4.384 5.315zm-2.197 0c0-2.108-1.089-3.494-2.751-3.494-1.633 0-2.731 1.415-2.731 3.494 0 2.098 1.098 3.503 2.73 3.503 1.663 0 2.752-1.376 2.752-3.503zm9.771 1.227c.158 1.416 1.534 2.346 3.414 2.346 1.801 0 3.097-.93 3.097-2.207 0-1.109-.781-1.772-2.632-2.227l-1.851-.446c-2.622-.634-3.84-1.86-3.84-3.85 0-2.464 2.148-4.156 5.197-4.156 3.017 0 5.086 1.692 5.155 4.156H88.85c-.129-1.425-1.307-2.285-3.029-2.285-1.721 0-2.9.87-2.9 2.137 0 1.01.753 1.604 2.594 2.058l1.573.387c2.93.693 4.148 1.87 4.148 3.959 0 2.671-2.129 4.345-5.514 4.345-3.166 0-5.305-1.634-5.443-4.217h2.188zm13.381-8.897v2.464h1.98v1.692h-1.98v5.74c0 .892.396 1.307 1.267 1.307.235-.004.47-.02.703-.05v1.683a5.87 5.87 0 01-1.188.099c-2.107 0-2.93-.792-2.93-2.811v-5.968h-1.513V24.66H93.7v-2.464h2.147zm3.126 7.67c0-3.276 1.93-5.334 4.938-5.334 3.019 0 4.94 2.058 4.94 5.334 0 3.285-1.911 5.335-4.94 5.335-3.027 0-4.938-2.05-4.938-5.335zm7.7 0c0-2.247-1.03-3.573-2.762-3.573-1.731 0-2.76 1.336-2.76 3.573 0 2.256 1.029 3.573 2.76 3.573 1.732 0 2.762-1.317 2.762-3.573zm3.94-5.206h2.038v1.772h.049a2.48 2.48 0 012.505-1.881c.246-.001.492.026.732.08v1.998a2.986 2.986 0 00-.96-.129 2.157 2.157 0 00-1.665.686 2.16 2.16 0 00-.562 1.71v6.175h-2.137V24.66zm15.178 7.354c-.288 1.89-2.129 3.187-4.484 3.187-3.028 0-4.908-2.03-4.908-5.285 0-3.266 1.89-5.384 4.819-5.384 2.88 0 4.692 1.979 4.692 5.135v.733h-7.354v.129a2.706 2.706 0 00.735 2.107 2.713 2.713 0 002.066.842 2.355 2.355 0 002.404-1.464h2.03zm-7.225-3.108h5.205a2.496 2.496 0 00-.699-1.88 2.509 2.509 0 00-1.854-.762 2.637 2.637 0 00-2.652 2.642zM43.709 10.04a2.164 2.164 0 012.263 2.288 2.179 2.179 0 01-2.297 2.263h-1.588v2.311h-1.066V10.04h2.688zm-1.622 3.614h1.341c.918 0 1.456-.475 1.456-1.326 0-.87-.52-1.346-1.456-1.346h-1.34v2.672zm4.881.656a2.454 2.454 0 114.884 0 2.454 2.454 0 11-4.884 0zm3.832 0c0-1.122-.504-1.778-1.389-1.778-.888 0-1.388.656-1.388 1.779 0 1.131.5 1.783 1.388 1.783.885 0 1.39-.656 1.39-1.783zm3.53 1.774h-.076v.819h-.984v-7.2h1.022v2.844h.081a1.72 1.72 0 011.594-.909c1.312 0 2.14 1.027 2.14 2.673 0 1.64-.833 2.677-2.14 2.677a1.793 1.793 0 01-1.636-.904zm-.057-1.768c.006 1.084.538 1.754 1.398 1.754.866 0 1.384-.66 1.384-1.759 0-1.09-.518-1.755-1.383-1.755-.856 0-1.393.675-1.399 1.76zm5.072-4.123a.662.662 0 11.661.622.631.631 0 01-.661-.622zm.151 1.53h1.02v5.18h-1.02v-5.18zm7.047 3.781a2.103 2.103 0 01-2.244 1.498 2.353 2.353 0 01-2.392-2.672 2.39 2.39 0 012.387-2.706c1.441 0 2.31.984 2.31 2.61v.357h-3.656v.058a1.37 1.37 0 001.379 1.483 1.242 1.242 0 001.232-.628h.984zm-3.595-1.669h2.615a1.25 1.25 0 00-1.274-1.341 1.325 1.325 0 00-1.341 1.341zm5.029-2.111h.983v.794h.077a1.403 1.403 0 011.398-.88c.153-.002.306.012.456.043v1.008a2.798 2.798 0 00-.57-.062 1.214 1.214 0 00-1.322 1.218v3.057h-1.022v-5.178zm3.925 4.484l2.848-3.538v-.08h-2.83v-.866h4.052v.746l-2.787 3.486v.081h2.816v.866h-4.1v-.695zm13.738.694h-1.06l-1.07-3.813h-.08l-1.067 3.813h-1.05l-1.427-5.178h1.036l.928 3.951h.076l1.065-3.95h.98l1.065 3.95h.081l.923-3.95h1.022l-1.422 5.178z" fill="#fff"/></svg>