<svg width="59" height="64" fill="none" xmlns="http://www.w3.org/2000/svg"><path opacity=".05" d="M14.672 53.007c1.497 2 3.455 3.605 5.707 4.674l10.2 4.842c6.86 3.256 15.058.98 19.282-5.354l6.544-9.814A15.46 15.46 0 0059 38.78V23.164a15.5 15.5 0 00-.9-5.203l-2.312-6.474A15.35 15.35 0 0044.09 1.532L37.027.246a15.256 15.256 0 00-5.95.097L17.853 3.198A15.335 15.335 0 007.799 10.55l-5.742 9.986A15.468 15.468 0 003.075 37.5l11.597 15.506z" fill="#ED7064"/><path fill-rule="evenodd" clip-rule="evenodd" d="M22.628 15.136a1.156 1.156 0 00-1.146 1.177v2.315h-2.313a1.154 1.154 0 00-1.15 1.15V42.91c.001.635.516 1.15 1.15 1.15h19.656c.107.002.213-.012.316-.041.987 3.357 4.099 5.822 7.768 5.822 4.456 0 8.09-3.636 8.09-8.093 0-4.058-3.015-7.426-6.92-7.995V19.778a1.156 1.156 0 00-1.153-1.15h-2.312v-2.315a1.155 1.155 0 00-1.29-1.17 1.154 1.154 0 00-1.024 1.17v2.315h-4.625v-2.315a1.157 1.157 0 10-2.313 0v2.315h-4.627v-2.315a1.156 1.156 0 10-2.313 0v2.315h-4.628v-2.315a1.16 1.16 0 00-1.166-1.177zm-2.297 5.805h1.15v1.15a1.157 1.157 0 002.313 0v-1.15h4.628v1.15a1.153 1.153 0 001.156 1.182 1.157 1.157 0 001.157-1.182v-1.15h4.628v1.15a1.156 1.156 0 002.312 0v-1.15H42.3v1.15a1.156 1.156 0 102.314 0v-1.15h1.152v12.805c-3.918.56-6.958 3.934-6.958 8.001H20.331V20.941zm2.297 3.463a1.156 1.156 0 00-1.164 1.162v4.626a1.153 1.153 0 001.164 1.152h4.625a1.156 1.156 0 001.15-1.152v-4.626a1.157 1.157 0 00-1.15-1.162h-4.625zm8.107 0a1.157 1.157 0 00-1.152 1.162v4.626a1.158 1.158 0 001.152 1.152h4.628a1.156 1.156 0 001.15-1.152v-4.626a1.157 1.157 0 00-1.15-1.162h-4.628zm8.09 0a1.157 1.157 0 00-1.15 1.162v4.626a1.156 1.156 0 001.15 1.152h4.628a1.156 1.156 0 001.16-1.152v-4.626a1.152 1.152 0 00-.337-.823 1.162 1.162 0 00-.823-.34h-4.628zm-15.047 2.312h2.313v2.316h-2.313v-2.316zm8.117 0h2.306v2.316h-2.306v-2.316zm8.093 0H42.3v2.316h-2.312v-2.316zm-17.36 6.925a1.156 1.156 0 00-1.164 1.151v4.625a1.157 1.157 0 001.164 1.161h4.625a1.156 1.156 0 001.15-1.16v-4.625a1.156 1.156 0 00-1.15-1.152h-4.625zm8.107 0a1.158 1.158 0 00-1.152 1.152v4.625a1.156 1.156 0 001.152 1.16h4.628a1.156 1.156 0 001.15-1.16v-4.625a1.156 1.156 0 00-1.15-1.152h-4.628zm-6.957 2.312h2.313v2.313h-2.313v-2.313zm8.117 0h2.306v2.313h-2.306v-2.313zm15.014.019a5.757 5.757 0 015.778 5.775 5.768 5.768 0 01-5.778 5.789 5.774 5.774 0 01-5.787-5.789 5.764 5.764 0 015.787-5.775zm-.016 2.294a1.158 1.158 0 00-1.146 1.169v2.312a1.16 1.16 0 001.162 1.163h2.314a1.158 1.158 0 000-2.313H48.06v-1.162a1.159 1.159 0 00-1.166-1.17z" fill="#ED7064"/></svg>