<svg width="59" height="64" fill="none" xmlns="http://www.w3.org/2000/svg"><path opacity=".05" d="M14.672 10.993c1.497-2 3.455-3.605 5.707-4.674l10.2-4.841C37.439-1.78 45.637.498 49.86 6.83l6.544 9.814A15.46 15.46 0 0159 25.22v15.615a15.5 15.5 0 01-.9 5.203l-2.312 6.474a15.35 15.35 0 01-11.698 9.955l-7.063 1.285a15.24 15.24 0 01-5.95-.096l-13.224-2.855A15.335 15.335 0 017.799 53.45l-5.742-9.986A15.468 15.468 0 013.075 26.5l11.597-15.506z" fill="#ED7064"/><path d="M46.71 38.24H36.438c.215-.61.277-1.273.17-1.93-.3-1.84-2-3.23-3.956-3.23H27.63c-.28 0-.551.09-.775.259L23.76 35.66v-1.29a1.29 1.29 0 00-1.29-1.29h-7.74a1.29 1.29 0 00-1.29 1.29v12.9c0 .712.578 1.29 1.29 1.29h7.74a1.29 1.29 0 001.29-1.29v-.492l3.292 1.646c.18.089.378.136.578.136h7.387a8.945 8.945 0 003.667-.78l9.183-4.08a2.853 2.853 0 00-1.157-5.46zm-25.53 7.74h-5.16V35.66h5.16v10.32zm25.639-4.636l-9.183 4.082a6.412 6.412 0 01-2.619.554h-7.081l-4.176-2.088v-5.007l4.3-3.225h4.593c.693 0 1.313.467 1.409 1.063a1.291 1.291 0 01-1.272 1.517 1.29 1.29 0 000 2.58h13.92c.29 0 .376.403.109.524zm-8.499-9.939a1.291 1.291 0 001.84 0l7.48-7.599c2.553-2.593 2.553-6.814 0-9.408a6.498 6.498 0 00-4.66-1.958c-1.356 0-2.65.413-3.74 1.179a6.518 6.518 0 00-8.4.78c-2.553 2.593-2.553 6.814 0 9.407l7.48 7.6zM32.68 16.21a3.938 3.938 0 015.64 0c.486.492 1.352.492 1.839 0 1.51-1.534 4.132-1.534 5.64 0a4.141 4.141 0 010 5.788l-6.56 6.663-6.56-6.665c-1.572-1.594-1.572-4.19 0-5.786z" fill="#ED7064"/></svg>