<svg width="59" height="64" fill="none" xmlns="http://www.w3.org/2000/svg"><path opacity=".05" d="M44.328 10.993a15.345 15.345 0 00-5.707-4.674l-10.2-4.841C21.561-1.78 13.363.498 9.14 6.83l-6.544 9.814A15.46 15.46 0 000 25.22v15.615a15.5 15.5 0 00.9 5.203l2.312 6.474a15.35 15.35 0 0011.698 9.955l7.063 1.285c1.97.36 3.992.326 5.95-.096l13.224-2.855a15.335 15.335 0 0010.054-7.353l5.742-9.986A15.468 15.468 0 0055.925 26.5L44.328 10.993z" fill="#ED7064"/><path d="M36.72 30.76c.72-.642.36-1.841-.6-1.921l-4.44-.36c-.4-.04-.76-.28-.92-.68l-1.721-4.12c-.36-.88-1.64-.88-2 0l-1.72 4.12c-.16.36-.52.641-.92.68l-4.4.4c-.959.08-1.359 1.28-.6 1.92l3.36 2.88c.32.28.44.68.36 1.08l-1.041 4.32c-.24.92.8 1.68 1.6 1.16l3.8-2.32c.36-.2.8-.2 1.12 0l3.8 2.32c.84.52 1.84-.24 1.6-1.16l-1.04-4.32c-.08-.4.04-.8.359-1.08l3.403-2.92zm-8.68-11.72c.68 0 1.2-.559 1.2-1.2v-3.6c0-.679-.558-1.2-1.2-1.2-.64 0-1.2.56-1.2 1.2v3.6c0 .64.56 1.2 1.2 1.2zM17.16 22.8c.24.24.559.36.84.36.32 0 .6-.12.84-.36.48-.48.48-1.24 0-1.72l-2.559-2.56c-.48-.48-1.24-.48-1.72 0s-.48 1.241 0 1.72l2.598 2.56zm-2.12 9.16c0-.68-.559-1.2-1.2-1.2h-3.6c-.679 0-1.2.52-1.2 1.2 0 .679.56 1.2 1.2 1.2h3.6c.64 0 1.2-.56 1.2-1.2zm2.04 9.16l-2.56 2.56c-.48.48-.48 1.24 0 1.72.24.24.56.36.84.36.28 0 .6-.12.841-.36l2.56-2.56c.48-.479.48-1.24 0-1.72-.44-.44-1.202-.44-1.681 0zm10.88 3.84c-.68 0-1.2.559-1.2 1.2v3.6c0 .679.559 1.2 1.2 1.2.64 0 1.2-.56 1.2-1.2v-3.6c0-.64-.56-1.2-1.2-1.2zm10.88-3.76c-.479-.48-1.24-.48-1.72 0s-.48 1.24 0 1.72l2.56 2.56c.24.24.56.36.84.36.28 0 .6-.121.841-.36.48-.48.48-1.241 0-1.72l-2.52-2.56zm6.96-10.36h-3.6c-.68 0-1.2.56-1.2 1.2 0 .641.56 1.2 1.2 1.2h3.6c.68 0 1.2-.559 1.2-1.2 0-.64-.56-1.2-1.2-1.2zm-7.76-7.64c.321 0 .6-.12.841-.36l2.56-2.559c.48-.48.48-1.24 0-1.72s-1.24-.48-1.72 0l-2.52 2.598c-.48.48-.48 1.241 0 1.72.24.241.559.321.84.321z" fill="#ED7064"/></svg>